<svg id="Calque_1" data-name="Calque 1" xmlns="http://www.w3.org/2000/svg" viewBox="0 0 200 200"><defs><style>.cls-1{fill:#fff;}</style></defs><path class="cls-1" d="M156.59,0a1.35,1.35,0,0,0,1.27,1.15,3,3,0,0,1,1.76,1,3,3,0,0,1,.6,3.44,3,3,0,0,1-2.81,1.92,2,2,0,0,1-.77-.09.83.83,0,0,1-.58-.82.88.88,0,0,1,.64-.89,3.58,3.58,0,0,1,.58,0A1.33,1.33,0,0,0,157.51,3l-.09,0a3.23,3.23,0,0,1-2.78-3Z"/><path class="cls-1" d="M90,0c0,.86.65,1,1.3,1.17a3.2,3.2,0,0,1-.94,6.31c-.66-.09-1.06-.54-.93-1.11a.91.91,0,0,1,.9-.74c1.09-.14,1.53-.49,1.61-1.21a1.56,1.56,0,0,0-1.46-1.53A3,3,0,0,1,88.06,0Z"/><path class="cls-1" d="M23.24,0a1.75,1.75,0,0,0,1.5,1.2,3.13,3.13,0,0,1,2.42,3.51,3.17,3.17,0,0,1-3,2.78,2.58,2.58,0,0,1-.68-.07.85.85,0,0,1-.66-1,.84.84,0,0,1,.71-.81c.22,0,.46,0,.68,0a1.36,1.36,0,0,0,1.13-1.19,1.32,1.32,0,0,0-.91-1.36C24.19,3,24,3,23.74,2.9A3,3,0,0,1,21.48,0Z"/><path class="cls-1" d="M0,29.87a3.26,3.26,0,0,1,3.32,2.55,3.47,3.47,0,0,1-2.09,4A8.11,8.11,0,0,1,0,36.71v-2a1.49,1.49,0,0,0,1.51-1.23A1.58,1.58,0,0,0,.56,31.8,5.18,5.18,0,0,0,0,31.63Z"/><path class="cls-1" d="M0,96.46A3.41,3.41,0,0,1,3.41,100,3.34,3.34,0,0,1,0,103.29v-1.76a4.38,4.38,0,0,0,.64-.22,1.58,1.58,0,0,0,.87-1.7A1.44,1.44,0,0,0,0,98.41Z"/><path class="cls-1" d="M0,163a3.5,3.5,0,0,1,3.13,2.13,3.45,3.45,0,0,1-2.27,4.71c-.28.08-.57.13-.86.19v-2c1-.21,1.54-.75,1.54-1.57S1,165.17,0,165Z"/><path class="cls-1" d="M40.22,0c-.56,2.11-2,3.18-3.94,3A3.32,3.32,0,0,1,33.39,0h2a1.3,1.3,0,0,0,1.39,1.1A1.49,1.49,0,0,0,38.27,0Z"/><path class="cls-1" d="M106.8,0a3.33,3.33,0,0,1-2.9,3A3.46,3.46,0,0,1,100.2.84,7.39,7.39,0,0,1,100,0h2a1.45,1.45,0,0,0,1.53,1.1,1.33,1.33,0,0,0,1.4-1.1Z"/><path class="cls-1" d="M173.58,0c-.07.18-.14.36-.2.54A3.43,3.43,0,0,1,170,3,3.44,3.44,0,0,1,166.74.55c-.06-.18-.12-.37-.19-.55h1.95c.11.16.19.34.31.49a1.56,1.56,0,0,0,2.5,0c.12-.15.21-.32.32-.48Z"/><path class="cls-1" d="M0,174.56a3.56,3.56,0,0,1,.72.23c1.36.75,2.7,1.55,4.08,2.27.71.37,1,.94.73,1.46s-.83.65-1.67.19-2-1.12-3-1.66a6.81,6.81,0,0,0-.89-.34Z"/><path class="cls-1" d="M0,107.78l5,2.73a1.66,1.66,0,0,1,.32.22.88.88,0,0,1,.27,1.13.89.89,0,0,1-1.15.45,3.77,3.77,0,0,1-.61-.29c-1-.54-1.92-1.1-2.89-1.62a5.13,5.13,0,0,0-.89-.28Z"/><path class="cls-1" d="M0,41.2c.52.26,1.05.49,1.56.77L4.7,43.73a3.3,3.3,0,0,1,.65.42.84.84,0,0,1,.18,1.07.82.82,0,0,1-1,.48,3.89,3.89,0,0,1-.89-.39L0,43.35Z"/><path class="cls-1" d="M0,65a1.61,1.61,0,0,1,1.83,1.54c.06,1-.62,1.69-1.83,1.78Z"/><path class="cls-1" d="M0,131.6a1.68,1.68,0,0,1,1.71,1A1.63,1.63,0,0,1,0,134.92Z"/><path class="cls-1" d="M68.53,0a4.77,4.77,0,0,1-.17.65,1.62,1.62,0,0,1-1.57,1.06A1.62,1.62,0,0,1,65.22.64C65.13.43,65.09.21,65,0Z"/><path class="cls-1" d="M135.12,0c-.16,1.11-.8,1.75-1.73,1.72A1.65,1.65,0,0,1,131.8,0Z"/><path class="cls-1" d="M190.76,0c-.46.93-.68,1.06-1.66.89A5.39,5.39,0,0,1,186.66,0Z"/><path class="cls-1" d="M124,0c-.2.77-.4,1-1.06.94A5.13,5.13,0,0,1,120.08,0Z"/><path class="cls-1" d="M57.4,0c-.32.84-.55,1-1.32.93A4.42,4.42,0,0,1,53.5,0Z"/><path class="cls-1" d="M1.76,0c0,1.11-.42,1.51-1.76,1.76V0Z"/><path class="cls-1" d="M0,198.18c1.33.3,1.62.58,1.77,1.71a4.79,4.79,0,0,1-1.77.05Z"/><path class="cls-1" d="M199.94,0V1.61c-1.05-.15-1.34-.46-1.56-1.61Z"/><path class="cls-1" d="M0,72.24c.64.11.87.62,1,1.14s-.13.92-1,1.21Z"/><path class="cls-1" d="M0,138.83a3.78,3.78,0,0,1,.72.59c.67.87.39,1.53-.72,1.75Z"/><path class="cls-1" d="M0,5.66A1.47,1.47,0,0,1,1.07,7c0,.51-.33.73-1.07.8Z"/><path class="cls-1" d="M0,114.61c.14.15.36.29.39.45A1,1,0,0,1,0,116.18Z"/><path class="cls-1" d="M0,48c.13.11.36.2.38.32A1.24,1.24,0,0,1,0,49.59Z"/><path class="cls-1" d="M0,181.2c.57.55.57.88,0,1.56Z"/><path class="cls-1" d="M17.81,144.55a10.28,10.28,0,0,1-.21,1.38,3.11,3.11,0,0,1-6.1-.76,7.6,7.6,0,0,0-.05-1.07A3.67,3.67,0,0,0,8.05,141a3.13,3.13,0,0,1,0-6.25,8.08,8.08,0,0,1,3.6.75C15.53,137.24,17.49,140.29,17.81,144.55Zm-1.94,0a8.09,8.09,0,0,0-6.59-7.82A4.43,4.43,0,0,0,8,136.66a1.13,1.13,0,0,0-1,1A1.2,1.2,0,0,0,7.74,139a3.66,3.66,0,0,0,.76.15,5.49,5.49,0,0,1,4.87,5.45,5.19,5.19,0,0,0,.05.68,1.23,1.23,0,0,0,2.41,0A5.24,5.24,0,0,0,15.87,144.55Z"/><path class="cls-1" d="M151.1,11.41a9.55,9.55,0,0,1-.23,1.33,3.12,3.12,0,0,1-6-.49,8.3,8.3,0,0,1-.05-.87,3.64,3.64,0,0,0-3.16-3.64c-.19,0-.39-.06-.58-.09a3.08,3.08,0,0,1-2.65-3.49,3.14,3.14,0,0,1,3.36-2.73,9.94,9.94,0,0,1,9.21,8.7C151,10.52,151.05,10.91,151.1,11.41Zm-1.95-.28a8,8,0,0,0-6.25-7.62,6.66,6.66,0,0,0-1.54-.16,1.19,1.19,0,0,0-1.1,1.06,1.21,1.21,0,0,0,.81,1.3,3.79,3.79,0,0,0,.76.15,5.53,5.53,0,0,1,4.83,5.29,4,4,0,0,0,0,.78,1.24,1.24,0,0,0,2.45,0A5.06,5.06,0,0,0,149.15,11.13Z"/><path class="cls-1" d="M84.44,144.44a9.68,9.68,0,0,1-.2,1.54A3.11,3.11,0,0,1,81,148.16a3.18,3.18,0,0,1-2.88-2.85c0-.22,0-.45,0-.68A3.68,3.68,0,0,0,74.85,141a5.13,5.13,0,0,1-1-.19,3.13,3.13,0,0,1,1-6.07,8.87,8.87,0,0,1,3.33.66A10,10,0,0,1,84.44,144.44Zm-1.9.3a8.13,8.13,0,0,0-6-7.86,8,8,0,0,0-1.82-.23,1.16,1.16,0,0,0-1.14,1.12,1.22,1.22,0,0,0,.87,1.26,6.45,6.45,0,0,0,.86.15A5.57,5.57,0,0,1,80,144.42c0,.25,0,.52,0,.77a1.22,1.22,0,0,0,2.38.23A2.87,2.87,0,0,0,82.54,144.74Z"/><path class="cls-1" d="M112.87,107.44a3.23,3.23,0,0,1,3.51,2.51,3.08,3.08,0,0,1-2,3.57,10.66,10.66,0,0,1-1.63.26,3.61,3.61,0,0,0-3,3.22c0,.32,0,.65-.11,1a2.94,2.94,0,0,1-2.07,2.37,3,3,0,0,1-3.09-.63,3.12,3.12,0,0,1-1-2.44,10,10,0,0,1,8.29-9.68C112.12,107.52,112.57,107.48,112.87,107.44ZM105.26,117a2.54,2.54,0,0,0,0,.39,1.25,1.25,0,0,0,2.49.08c0-.16,0-.32,0-.48a5.54,5.54,0,0,1,5.12-5.13,3.77,3.77,0,0,0,.58,0,1.29,1.29,0,0,0,1.08-1.31,1.27,1.27,0,0,0-1.23-1.16,3.74,3.74,0,0,0-.58,0A8.13,8.13,0,0,0,105.26,117Z"/><path class="cls-1" d="M170,50.35a10,10,0,0,1,9.87-9.54,3.13,3.13,0,1,1,.2,6.26,3.66,3.66,0,0,0-3.76,3.77,3.17,3.17,0,0,1-2.8,3,3.1,3.1,0,0,1-3.3-2.17A9.84,9.84,0,0,1,170,50.35Zm9.71-7.65A8.08,8.08,0,0,0,172,49.35a6.44,6.44,0,0,0-.1,1.45,1.23,1.23,0,0,0,2.45.05c0-.25,0-.51.07-.77a5.5,5.5,0,0,1,5-4.85,8.27,8.27,0,0,0,.87-.11,1.22,1.22,0,0,0-.08-2.38A4.74,4.74,0,0,0,179.7,42.7Z"/><path class="cls-1" d="M46.33,174a3.26,3.26,0,0,1,3.12,4.69,3.14,3.14,0,0,1-2.86,1.71,3.59,3.59,0,0,0-3,1.7,4.55,4.55,0,0,0-.61,2.23A3.1,3.1,0,0,1,39,187a3.18,3.18,0,0,1-2.23-3.19,9.89,9.89,0,0,1,6.4-9.07A28.74,28.74,0,0,1,46.33,174Zm-7.69,9.65c0,.13,0,.27,0,.39a1.23,1.23,0,0,0,2.45.21,5.05,5.05,0,0,0,.07-.68,5.26,5.26,0,0,1,1.41-3.24,5.6,5.6,0,0,1,4-1.84c.91-.05,1.41-.55,1.37-1.3A1.27,1.27,0,0,0,46.41,176a7.73,7.73,0,0,0-1.26.15A8.05,8.05,0,0,0,38.64,183.63Z"/><path class="cls-1" d="M36.75,50.36a9.91,9.91,0,0,1,10-9.55A3.13,3.13,0,0,1,47.46,47a4.13,4.13,0,0,1-.86.11A3.71,3.71,0,0,0,43,50.52a6.35,6.35,0,0,1-.15,1.16,3.13,3.13,0,0,1-6.1-.63A5.3,5.3,0,0,1,36.75,50.36Zm1.89,0c0,.13,0,.26,0,.39a1.23,1.23,0,0,0,2.45.18,5.05,5.05,0,0,0,.07-.68,5.48,5.48,0,0,1,4.8-5c.32,0,.65,0,1-.12a1.18,1.18,0,0,0,1-1.36c-.09-.7-.61-1.07-1.49-1.07A8,8,0,0,0,38.64,50.35Z"/><path class="cls-1" d="M179.64,174.12a3.13,3.13,0,1,1,.55,6.24,9,9,0,0,0-1.16.14,3.65,3.65,0,0,0-2.71,3.21,6.5,6.5,0,0,1-.18,1.25,3.12,3.12,0,0,1-6.09-.81A9.88,9.88,0,0,1,179.64,174.12Zm-7.73,9.81h0a1.29,1.29,0,0,0,1.24,1.36,1.25,1.25,0,0,0,1.25-1.23c0-.23,0-.46.06-.68a5.58,5.58,0,0,1,5.16-4.89,3.07,3.07,0,0,0,.68-.06,1.2,1.2,0,0,0,.9-1.14,1.12,1.12,0,0,0-.73-1.16,2,2,0,0,0-.85-.14A8.15,8.15,0,0,0,171.91,183.93Z"/><path class="cls-1" d="M17.77,11.22a3.25,3.25,0,0,1-2,3.43A3.12,3.12,0,0,1,11.5,12a7.67,7.67,0,0,0-.13-1.45A3.51,3.51,0,0,0,8.51,7.77l-.77-.12A3.11,3.11,0,0,1,5.09,4.24,3.16,3.16,0,0,1,8.48,1.43,10,10,0,0,1,17.77,11.22Zm-1.9,0A8.06,8.06,0,0,0,9.56,3.5a6.51,6.51,0,0,0-1.45-.16A1.17,1.17,0,0,0,7,4.37a1.2,1.2,0,0,0,.84,1.37,3.59,3.59,0,0,0,.57.11,5.51,5.51,0,0,1,5,5.36,6.49,6.49,0,0,0,.05.77,1.23,1.23,0,0,0,2.41,0A5.24,5.24,0,0,0,15.87,11.25Z"/><path class="cls-1" d="M17.83,77.89a9.72,9.72,0,0,1-.3,1.61,3.12,3.12,0,0,1-6-.92,8.78,8.78,0,0,0-.13-1.45,3.58,3.58,0,0,0-3.06-2.75,8.11,8.11,0,0,1-.86-.14A3.11,3.11,0,0,1,5.1,70.78a3,3,0,0,1,3.1-2.67,9.59,9.59,0,0,1,8.37,5.19A10.11,10.11,0,0,1,17.83,77.89Zm-2,0a8.09,8.09,0,0,0-6.21-7.75A6.39,6.39,0,0,0,8.22,70,1.19,1.19,0,0,0,7,71.1a1.21,1.21,0,0,0,1,1.33c.15,0,.32,0,.48.06A5.54,5.54,0,0,1,13.37,78a3.82,3.82,0,0,0,.05.68,1.23,1.23,0,0,0,1.26,1,1.25,1.25,0,0,0,1.15-1A5.24,5.24,0,0,0,15.87,77.91Z"/><path class="cls-1" d="M84.44,11.1a10,10,0,0,1-.19,1.54,3.09,3.09,0,0,1-3.37,2.2A3.14,3.14,0,0,1,78.14,12c0-.25,0-.52,0-.78a3.61,3.61,0,0,0-2.94-3.41c-.25-.06-.51-.09-.77-.13a3.13,3.13,0,0,1-2.69-3.38A3.18,3.18,0,0,1,75.1,1.43,10,10,0,0,1,84.44,11.1Zm-1.9.4a8.18,8.18,0,0,0-7.1-8.15c-1.08-.12-1.75.28-1.83,1.11s.45,1.26,1.52,1.39A5.57,5.57,0,0,1,80,11.2a6.78,6.78,0,0,0,0,.78,1.2,1.2,0,0,0,1.07,1,1.18,1.18,0,0,0,1.26-.73A3.7,3.7,0,0,0,82.54,11.5Z"/><path class="cls-1" d="M170.05,117a9.88,9.88,0,0,1,8.45-9.41,6.89,6.89,0,0,1,2.22,0,3.06,3.06,0,0,1,2.39,3.14,3.13,3.13,0,0,1-2.75,3c-.29,0-.58,0-.87.09a3.65,3.65,0,0,0-3.18,3.42,5.31,5.31,0,0,1-.15,1.06,3.11,3.11,0,0,1-6.11-.76C170,117.32,170.05,117.15,170.05,117Zm9.7-7.65a8.11,8.11,0,0,0-7.73,6.8,6.62,6.62,0,0,0-.09,1.26,1.23,1.23,0,0,0,1.25,1.23,1.25,1.25,0,0,0,1.21-1.17c0-.26,0-.52.08-.78a5.53,5.53,0,0,1,5.19-4.83,2.68,2.68,0,0,0,.85-.17,1.16,1.16,0,0,0,.68-1.28,1.2,1.2,0,0,0-.92-1A2.26,2.26,0,0,0,179.75,109.34Z"/><path class="cls-1" d="M141.8,68.1a9.9,9.9,0,0,1,9.12,8.33,9.35,9.35,0,0,1,.06,2.42,3,3,0,0,1-3.21,2.65,3.1,3.1,0,0,1-3-2.93c0-.32,0-.65,0-1a3.61,3.61,0,0,0-3.16-3.22l-.39,0a3.12,3.12,0,0,1-2.8-3.47A3.09,3.09,0,0,1,141.8,68.1ZM149.18,78a8.14,8.14,0,0,0-6.36-7.83,6.7,6.7,0,0,0-1.26-.17,1.25,1.25,0,0,0-.23,2.48c.2,0,.39,0,.59.07A5.53,5.53,0,0,1,146.66,78a2.82,2.82,0,0,0,0,.58,1.24,1.24,0,0,0,2.45,0A4.07,4.07,0,0,0,149.18,78Z"/><path class="cls-1" d="M36.73,117.06a10,10,0,0,1,9.77-9.62A3.18,3.18,0,0,1,49.75,110a3.1,3.1,0,0,1-2,3.52,4.26,4.26,0,0,1-1.14.21A3.72,3.72,0,0,0,43,117.41a3.09,3.09,0,0,1-3.3,3.09A3.15,3.15,0,0,1,36.73,117.06Zm9.54-7.71a8,8,0,0,0-7.41,6.14,8.63,8.63,0,0,0-.2,2,1.17,1.17,0,0,0,1.15,1.11,1.21,1.21,0,0,0,1.24-.9,5.1,5.1,0,0,0,.11-.77,5.5,5.5,0,0,1,5.13-5.1,3.17,3.17,0,0,0,.76-.11,1.18,1.18,0,0,0,.85-1.27,1.21,1.21,0,0,0-1-1.12A3.75,3.75,0,0,0,46.27,109.35Z"/><path class="cls-1" d="M113.05,40.81a3.13,3.13,0,0,1,3.34,3.69,3.18,3.18,0,0,1-2.91,2.58,5.89,5.89,0,0,0-2,.55,3.25,3.25,0,0,0-1.75,2.65c0,.36-.06.72-.13,1.07a3.11,3.11,0,0,1-6.13-.16,8.08,8.08,0,0,1,.44-3.55A9.94,9.94,0,0,1,113.05,40.81Zm-7.79,9.62c0,.09,0,.19,0,.29a1.25,1.25,0,0,0,2.5,0c0-.16,0-.32,0-.48a5.56,5.56,0,0,1,4.13-4.9,9.92,9.92,0,0,1,1.45-.2,1.25,1.25,0,1,0-.3-2.48A8.12,8.12,0,0,0,105.26,50.43Z"/><path class="cls-1" d="M84.45,77.79a11,11,0,0,1-.21,1.53,3.06,3.06,0,0,1-3.31,2.16,3.13,3.13,0,0,1-2.79-2.81c0-.29,0-.58,0-.88A3.64,3.64,0,0,0,75,74.39c-.25,0-.52,0-.77-.11A3.13,3.13,0,0,1,71.72,71,3.05,3.05,0,0,1,75,68.11a10,10,0,0,1,9.5,9.68Zm-1.91.26a8.14,8.14,0,0,0-6.4-7.93A7.53,7.53,0,0,0,75,70a1.27,1.27,0,0,0-1.36,1.12,1.23,1.23,0,0,0,1.1,1.36c.23,0,.46,0,.68.1a5.36,5.36,0,0,1,4.33,3.76,9.66,9.66,0,0,1,.3,2,1.25,1.25,0,1,0,2.49.13A3.21,3.21,0,0,0,82.54,78.05Z"/><path class="cls-1" d="M151.07,144.59a3.22,3.22,0,0,1-2.39,3.46,3.09,3.09,0,0,1-3.84-2.5c-.05-.35,0-.71-.06-1.07a3.69,3.69,0,0,0-3.24-3.48l-.49,0a3.11,3.11,0,0,1-2.66-3.31,3.06,3.06,0,0,1,3.08-2.91,9.11,9.11,0,0,1,4.38,1.17A10,10,0,0,1,151.07,144.59Zm-1.91-.12a8.05,8.05,0,0,0-6.69-7.76,4.52,4.52,0,0,0-1.16-.05,1.2,1.2,0,0,0-1.06,1.11A1.22,1.22,0,0,0,141,139a5,5,0,0,0,1,.19,5.52,5.52,0,0,1,4.67,5.33,5.61,5.61,0,0,0,0,.58,1.25,1.25,0,0,0,2.49,0A5.61,5.61,0,0,0,149.16,144.47Z"/><path class="cls-1" d="M113,174.11a3.13,3.13,0,0,1,2.28,5.54,3.41,3.41,0,0,1-2,.73,3.56,3.56,0,0,0-3.65,3.65,3.19,3.19,0,0,1-3.78,3.07,3.05,3.05,0,0,1-2.48-3.17,11.89,11.89,0,0,1,.48-3A9.84,9.84,0,0,1,113,174.11Zm-7.76,9.54a2.54,2.54,0,0,0,0,.39,1.25,1.25,0,0,0,2.49.08c0-.16,0-.32,0-.48a5.5,5.5,0,0,1,4.44-5c.41-.09.84-.09,1.26-.16a1.23,1.23,0,0,0,1.06-1,1.09,1.09,0,0,0-.49-1.19,1.9,1.9,0,0,0-1-.28A8.1,8.1,0,0,0,105.26,183.65Z"/><path class="cls-1" d="M157.24,140.79a3.94,3.94,0,0,1-.4,0,1,1,0,0,1-.78-.88.94.94,0,0,1,.72-.92c.25-.06.52-.05.77-.1a1.3,1.3,0,0,0,.23-2.47,5.89,5.89,0,0,0-.75-.2,3.21,3.21,0,0,1,.7-6.3c.29,0,.58,0,.87,0a1.23,1.23,0,0,0,1.13-1,1.25,1.25,0,0,0-.75-1.43,6.18,6.18,0,0,0-.84-.24,3.23,3.23,0,0,1-2.3-3.34,3.27,3.27,0,0,1,2.93-2.93h.39c.68,0,1.13.44,1.11,1a1,1,0,0,1-1.05.91,1.37,1.37,0,0,0-1.4.85,1.28,1.28,0,0,0,1,1.75,3.48,3.48,0,0,1,2.25,1.41,3.19,3.19,0,0,1-2.53,5c-.29,0-.58,0-.87,0a1.24,1.24,0,0,0-1.11,1.07,1.26,1.26,0,0,0,.78,1.42c.3.12.63.16.93.26a3.2,3.2,0,0,1-1.06,6.23Z"/><path class="cls-1" d="M158.19,65.09a4.17,4.17,0,0,0-1,.27,1.15,1.15,0,0,0-.6,1.23,1.21,1.21,0,0,0,.85,1.09c.3.12.63.15.93.26a3.19,3.19,0,0,1,2.1,3.46,3.25,3.25,0,0,1-3,2.76,2,2,0,0,1-.49,0,.94.94,0,0,1,0-1.88c.16,0,.33,0,.49,0a1.31,1.31,0,0,0,.28-2.51c-.3-.11-.63-.14-.94-.25A3.23,3.23,0,0,1,154.68,66a3.2,3.2,0,0,1,3-2.78c.29,0,.59,0,.88,0a1.31,1.31,0,0,0,.3-2.52c-.28-.1-.57-.13-.85-.22a3.2,3.2,0,0,1,1.09-6.24c.7,0,1.13.39,1.12.95s-.37.83-1,.93a2.52,2.52,0,0,0-.84.19,1.28,1.28,0,0,0,0,2.24,2.29,2.29,0,0,0,.64.21,3.25,3.25,0,0,1,2.61,3.58A3.14,3.14,0,0,1,158.19,65.09Z"/><path class="cls-1" d="M40.25,96.08a13,13,0,0,1,.59-1.62.86.86,0,0,1,1.17-.4.91.91,0,0,1,.49,1.22c-.06.18-.17.35-.22.54a1.26,1.26,0,0,0,.56,1.43,1.29,1.29,0,0,0,1.54-.09,5.84,5.84,0,0,0,.51-.59,3.2,3.2,0,0,1,5.32,3.48c-.1.21-.23.4-.31.61a1.29,1.29,0,0,0,.46,1.56,1.27,1.27,0,0,0,1.62-.1c.24-.21.41-.5.64-.73A3.2,3.2,0,0,1,58,104.62a3,3,0,0,1-.45.85.85.85,0,0,1-1.14.22.9.9,0,0,1-.45-1.07c.05-.19.17-.36.23-.54a1.3,1.3,0,0,0-.6-1.59,1.28,1.28,0,0,0-1.6.26c-.14.14-.24.31-.37.45a3.2,3.2,0,0,1-5.29-3.54c.08-.18.2-.34.27-.52a1.31,1.31,0,0,0-2.15-1.41c-.21.21-.37.46-.58.67a3.16,3.16,0,0,1-3.5.72A3.45,3.45,0,0,1,40.25,96.08Z"/><path class="cls-1" d="M123.73,75.76a3.16,3.16,0,0,1,2.34,1.34,5.93,5.93,0,0,0,.45.63,1.3,1.3,0,0,0,1.53.25,1.25,1.25,0,0,0,.68-1.38,6.15,6.15,0,0,0-.32-.91A3.21,3.21,0,0,1,130,71.8a3.17,3.17,0,0,1,4,1,1.5,1.5,0,0,1,.31.88,1,1,0,0,1-.49.74,1.43,1.43,0,0,1-.91,0c-.15,0-.26-.28-.39-.42a1.32,1.32,0,0,0-2.25,1.38c.06.16.14.3.19.45A3.2,3.2,0,0,1,129,79.61a3.17,3.17,0,0,1-4.1-.86c-.14-.18-.24-.39-.39-.56a1.38,1.38,0,0,0-1.66-.4,1.31,1.31,0,0,0-.63,1.59,7.12,7.12,0,0,0,.28.72,3.2,3.2,0,0,1-5.5,3.07,2.65,2.65,0,0,1-.4-.66.9.9,0,0,1,.38-1.1.85.85,0,0,1,1.08.08,2.72,2.72,0,0,1,.31.38,1.33,1.33,0,0,0,2.25-1.4c-.07-.18-.16-.36-.22-.54A3.24,3.24,0,0,1,123.73,75.76Z"/><path class="cls-1" d="M78,108.67a13.66,13.66,0,0,1-1.77-.72.87.87,0,0,1-.35-1.26.93.93,0,0,1,1.27-.35c1,.41,1.57.34,2-.28s.28-1.2-.48-2A3.2,3.2,0,0,1,82.49,99l.17.1A1.32,1.32,0,1,0,84.22,97a3.21,3.21,0,0,1,3.41-5.39,2,2,0,0,1,.57.38.94.94,0,0,1,.19,1.15.91.91,0,0,1-1.1.4c-.22-.07-.41-.22-.62-.29a1.31,1.31,0,0,0-1.45,2.06,7.14,7.14,0,0,0,.56.54A3.2,3.2,0,0,1,82,100.88c-.23-.12-.44-.28-.68-.38a1.27,1.27,0,0,0-1.56.44,1.26,1.26,0,0,0,0,1.54c.2.25.47.44.69.69a3.12,3.12,0,0,1,.57,3.45A3.51,3.51,0,0,1,78,108.67Z"/><path class="cls-1" d="M78,175.17a2.88,2.88,0,0,1-1.82-.59.92.92,0,0,1-.33-1.2.94.94,0,0,1,1.25-.41c.18.07.34.18.53.24a1.27,1.27,0,0,0,1.47-.46,1.3,1.3,0,0,0-.06-1.62c-.15-.17-.34-.31-.5-.47a3.2,3.2,0,0,1,3.8-5.09c.17.09.32.22.5.3a1.33,1.33,0,0,0,1.73-.4,1.36,1.36,0,0,0-.18-1.7c-.18-.19-.39-.34-.57-.54a3.2,3.2,0,0,1,3.75-5,2.23,2.23,0,0,1,.71.5.91.91,0,0,1-1,1.46c-.21-.07-.41-.2-.62-.28A1.3,1.3,0,0,0,85.25,162a5.44,5.44,0,0,0,.49.47,3.2,3.2,0,0,1-3.82,5.08c-.2-.11-.38-.26-.59-.35a1.33,1.33,0,0,0-1.64.46,1.29,1.29,0,0,0,.13,1.62c.17.19.39.35.57.54a3.17,3.17,0,0,1,.58,3.53A3.1,3.1,0,0,1,78,175.17Z"/><path class="cls-1" d="M52.45,151a3,3,0,0,1-2.31-1.45,1,1,0,0,1,.13-1.4c.43-.32.91-.22,1.36.27a4,4,0,0,0,.39.43,1.25,1.25,0,0,0,1.38.13,1.14,1.14,0,0,0,.71-1.17,3.06,3.06,0,0,0-.22-.84,3.2,3.2,0,0,1,5.6-3.07,5.85,5.85,0,0,0,.34.48,1.36,1.36,0,0,0,1.61.29,1.3,1.3,0,0,0,.64-1.41c-.06-.28-.21-.54-.3-.82a3.21,3.21,0,0,1,1.36-3.82,3.18,3.18,0,0,1,4,.56,2.7,2.7,0,0,1,.49.72.92.92,0,0,1-1.45,1.07c-.12-.11-.21-.26-.32-.38a1.29,1.29,0,0,0-1.73-.36,1.31,1.31,0,0,0-.52,1.69c.07.19.16.36.22.55a3.2,3.2,0,0,1-5.58,3c-.16-.21-.28-.45-.45-.64a1.26,1.26,0,0,0-1.59-.3,1.29,1.29,0,0,0-.64,1.57c.08.25.2.48.28.73A3.23,3.23,0,0,1,52.45,151Z"/><path class="cls-1" d="M90.53,140.79a1.86,1.86,0,0,1-.51-.09.86.86,0,0,1-.59-.91.82.82,0,0,1,.6-.8,6.2,6.2,0,0,1,.77-.11A1.29,1.29,0,0,0,92,137.74a1.36,1.36,0,0,0-1-1.42c-.21-.07-.44-.08-.66-.15a3.21,3.21,0,0,1,.8-6.28c.26,0,.52,0,.78,0a1.27,1.27,0,0,0,1.2-1.08,1.31,1.31,0,0,0-.89-1.46c-.27-.09-.57-.12-.84-.22a3.16,3.16,0,0,1-2.14-3.52,3.23,3.23,0,0,1,2.91-2.71,2.32,2.32,0,0,1,.59,0,1,1,0,0,1,.88,1,1,1,0,0,1-.89.88c-.16,0-.33,0-.49,0a1.3,1.3,0,0,0-.29,2.52c.24.09.51.13.76.2a3.2,3.2,0,0,1-.8,6.27c-.26,0-.53,0-.78,0a1.27,1.27,0,0,0-1.2,1.09,1.29,1.29,0,0,0,.89,1.45c.27.09.57.13.85.22a3.2,3.2,0,0,1-1.14,6.23Z"/><path class="cls-1" d="M183.93,32c-.2.57-.36,1.16-.61,1.71a1.51,1.51,0,0,0-.06,1.4,1.31,1.31,0,0,0,2.08.29c.23-.22.41-.5.64-.73a3.2,3.2,0,0,1,5.16,3.56,2,2,0,0,1-.28.51.91.91,0,0,1-1.21.3.88.88,0,0,1-.43-1.08c.05-.22.18-.42.23-.64a1.27,1.27,0,0,0-.54-1.44,1.32,1.32,0,0,0-1.62.16,7.08,7.08,0,0,0-.5.59,3.2,3.2,0,0,1-5.3-3.45c.09-.21.22-.4.31-.61a1.31,1.31,0,0,0-.41-1.65,1.29,1.29,0,0,0-1.76.21c-.18.19-.32.42-.5.6a3.2,3.2,0,0,1-5.31-3.3,2.66,2.66,0,0,1,.41-.76.9.9,0,0,1,1.14-.24.93.93,0,0,1,.46,1.08c-.06.21-.2.41-.25.63a1.28,1.28,0,0,0,.62,1.5,1.25,1.25,0,0,0,1.53-.18c.21-.2.36-.46.56-.67a3.21,3.21,0,0,1,3.5-.78A3.47,3.47,0,0,1,183.93,32Z"/><path class="cls-1" d="M19.6,157.91a2.94,2.94,0,0,1,1.83.58.93.93,0,0,1-.89,1.63c-.18-.07-.34-.18-.52-.25a1.3,1.3,0,0,0-1.48.44,1.34,1.34,0,0,0,0,1.55,5.71,5.71,0,0,0,.55.55,3.2,3.2,0,0,1-3.85,5.07,6,6,0,0,0-.59-.34,1.29,1.29,0,0,0-1.56.46,1.32,1.32,0,0,0,.09,1.62c.21.25.48.44.69.69a3.16,3.16,0,0,1,.09,4,3.21,3.21,0,0,1-3.86.94,2.78,2.78,0,0,1-.65-.42.93.93,0,0,1-.16-1.16.91.91,0,0,1,1.09-.38c.22.07.41.21.62.28a1.3,1.3,0,0,0,1.54-.52,1.33,1.33,0,0,0-.1-1.55,4,4,0,0,0-.42-.4,3.21,3.21,0,0,1,3.87-5.09,3.6,3.6,0,0,0,.5.29,1.33,1.33,0,0,0,1.57-.46,1.31,1.31,0,0,0-.1-1.62c-.18-.22-.44-.39-.62-.61a3.19,3.19,0,0,1,2.38-5.34Z"/><path class="cls-1" d="M114.44,167.7c.24-.59.46-1.19.7-1.79a1.32,1.32,0,0,0-2.21-1.42c-.13.15-.23.32-.36.46a3.11,3.11,0,0,1-3.2.94,3.06,3.06,0,0,1-2.29-2.32,3,3,0,0,1,.33-2.35,1,1,0,0,1,1.31-.48.94.94,0,0,1,.39,1.26c0,.07-.06.12-.08.18a1.32,1.32,0,0,0,2.32,1.26,3.13,3.13,0,0,1,3.45-1.23,3.18,3.18,0,0,1,2.09,4.41c-.08.18-.19.34-.27.52a1.33,1.33,0,0,0,.4,1.73,1.31,1.31,0,0,0,1.82-.32c.15-.17.28-.36.44-.52a3.21,3.21,0,0,1,4-.42,3.17,3.17,0,0,1,1.25,3.77,2.71,2.71,0,0,1-.37.69.94.94,0,0,1-1.22.25.91.91,0,0,1-.39-1.1c.06-.21.19-.41.24-.63a1.29,1.29,0,0,0-.6-1.43,1.27,1.27,0,0,0-1.6.21c-.19.18-.33.4-.51.59a3.2,3.2,0,0,1-3.58.79A3.52,3.52,0,0,1,114.44,167.7Z"/><path class="cls-1" d="M14.62,105.1A3.23,3.23,0,0,1,10,108.2a2.43,2.43,0,0,1-.57-.37,1,1,0,0,1-.18-1.16.92.92,0,0,1,1.1-.4c.24.08.46.25.71.32a1.27,1.27,0,0,0,1.44-.54,1.32,1.32,0,0,0-.08-1.55c-.16-.2-.38-.35-.56-.54a3.2,3.2,0,0,1,3.82-5c.2.1.38.25.59.34a1.3,1.3,0,0,0,1.57-2c-.21-.25-.48-.45-.69-.69a3.2,3.2,0,0,1,3.57-5.07,2.79,2.79,0,0,1,.68.37.93.93,0,0,1-.86,1.64c-.18-.07-.34-.2-.53-.26a1.29,1.29,0,0,0-1.48.44,1.34,1.34,0,0,0,0,1.63c.16.2.38.35.56.54a3.2,3.2,0,0,1-3.84,5c-.11-.06-.21-.14-.33-.2a1.32,1.32,0,0,0-1.9.26,1.36,1.36,0,0,0,.29,1.83c.14.14.29.26.42.41A3.07,3.07,0,0,1,14.62,105.1Z"/><path class="cls-1" d="M117.28,98.74c-.21.57-.4,1.14-.64,1.7a1.37,1.37,0,0,0,.41,1.81,1.27,1.27,0,0,0,1.68-.23c.21-.21.37-.46.58-.66a3.15,3.15,0,0,1,4-.38,3.19,3.19,0,0,1,1.19,3.87,2.48,2.48,0,0,1-.4.66.87.87,0,0,1-1.07.21.91.91,0,0,1-.5-1c0-.19.16-.36.22-.54a1.33,1.33,0,0,0-.55-1.62,1.27,1.27,0,0,0-1.67.28c-.12.12-.2.26-.31.38a3.2,3.2,0,0,1-5.34-3.47,4.58,4.58,0,0,0,.33-.71,1.27,1.27,0,0,0-.54-1.44,1.3,1.3,0,0,0-1.62.15c-.23.22-.41.51-.64.73a3.14,3.14,0,0,1-4,.38,3.19,3.19,0,0,1-1.18-3.87,2.48,2.48,0,0,1,.4-.66.84.84,0,0,1,1.06-.21.86.86,0,0,1,.5,1,2.72,2.72,0,0,1-.18.55,1.31,1.31,0,0,0,.52,1.7,1.35,1.35,0,0,0,1.8-.45c.1-.12.2-.25.31-.37a3.2,3.2,0,0,1,3.49-.8A3.46,3.46,0,0,1,117.28,98.74Z"/><path class="cls-1" d="M127,146.65a3,3,0,0,1-2.12-1.26c-.14-.18-.24-.38-.38-.56a1.3,1.3,0,0,0-1.66-.38,1.27,1.27,0,0,0-.63,1.57c.06.25.19.48.27.73a3.2,3.2,0,0,1-5.49,3.06,2.24,2.24,0,0,1-.4-.66.88.88,0,0,1,.3-1,.91.91,0,0,1,1.17,0,3.28,3.28,0,0,1,.37.45,1.35,1.35,0,0,0,1.68.3,1.33,1.33,0,0,0,.56-1.61c-.07-.21-.18-.42-.25-.63A3.2,3.2,0,0,1,126,143.6c.19.23.32.5.51.71a1.36,1.36,0,0,0,1.6.32,1.3,1.3,0,0,0,.65-1.49c-.07-.28-.21-.54-.3-.82a3.19,3.19,0,0,1,5.61-2.9,1.81,1.81,0,0,1,.31.6.92.92,0,0,1-1.5.9c-.16-.14-.28-.35-.44-.51a1.28,1.28,0,0,0-1.6-.24,1.3,1.3,0,0,0-.6,1.51c.07.25.2.48.28.73C131.19,144.52,129.65,146.67,127,146.65Z"/><path class="cls-1" d="M91.55,65.14a5.05,5.05,0,0,0-.67.06,1.29,1.29,0,0,0-.19,2.44c.3.13.63.17.94.27a3.18,3.18,0,0,1,2.19,3.4,3.22,3.22,0,0,1-3,2.84,2,2,0,0,1-.76-.09.84.84,0,0,1-.64-.88.9.9,0,0,1,.75-.89c.22-.05.46,0,.68-.05A1.32,1.32,0,0,0,92,71a1.28,1.28,0,0,0-.82-1.3c-.28-.11-.57-.15-.85-.23a3.2,3.2,0,0,1,.81-6.25c.29,0,.58,0,.87,0a1.3,1.3,0,0,0,.3-2.52c-.27-.1-.57-.13-.84-.22a3.2,3.2,0,0,1,1.08-6.24c.67,0,1.06.33,1.11.85s-.31.92-1,1a2.52,2.52,0,0,0-.83.19,1.29,1.29,0,0,0,0,2.25,2.28,2.28,0,0,0,.64.2A3.23,3.23,0,0,1,95,62.27,3.2,3.2,0,0,1,91.55,65.14Z"/><path class="cls-1" d="M40.26,29.48a11.75,11.75,0,0,1,.52-1.55.92.92,0,0,1,1.29-.5,1,1,0,0,1,.41,1.26s0,.06,0,.09c-.31.89-.17,1.5.46,1.86s1.23.22,1.85-.53a3.12,3.12,0,0,1,3.37-1.2,3.05,3.05,0,0,1,2.36,2.47,3,3,0,0,1-.21,1.9c-.07.18-.18.34-.26.52a1.31,1.31,0,0,0,.41,1.8,1.35,1.35,0,0,0,1.75-.31c.2-.21.37-.46.58-.66a3.2,3.2,0,0,1,5.12,3.59,2.51,2.51,0,0,1-.41.66.86.86,0,0,1-1.07.18A.9.9,0,0,1,55.9,38c.06-.22.2-.42.26-.63a1.29,1.29,0,0,0-.51-1.46A1.32,1.32,0,0,0,54,36c-.19.18-.34.4-.51.59a3.2,3.2,0,0,1-5.3-3.48,7.61,7.61,0,0,0,.35-.7A1.32,1.32,0,0,0,48,30.89a1.27,1.27,0,0,0-1.61.17c-.21.2-.36.46-.57.67a3.19,3.19,0,0,1-3.5.74A3.37,3.37,0,0,1,40.26,29.48Z"/><path class="cls-1" d="M65,71.46A3,3,0,0,1,67.52,73a.94.94,0,0,1-.14,1.32c-.43.35-.91.27-1.37-.22-.13-.14-.24-.31-.38-.44a1.34,1.34,0,0,0-1.55-.08A1.28,1.28,0,0,0,63.53,75c.07.25.21.48.29.72a3.2,3.2,0,0,1-5.61,3,7.17,7.17,0,0,0-.45-.63,1.32,1.32,0,0,0-1.61-.22,1.29,1.29,0,0,0-.59,1.51c.1.31.25.6.34.91A3.2,3.2,0,0,1,50.27,83a1.81,1.81,0,0,1-.29-.5.92.92,0,0,1,.34-1.12.88.88,0,0,1,1.16.12c.14.13.23.32.37.45a1.31,1.31,0,0,0,1.6.27,1.28,1.28,0,0,0,.63-1.49c-.06-.25-.2-.48-.28-.73a3.2,3.2,0,0,1,5.55-3c.14.18.25.38.39.56A1.32,1.32,0,0,0,62,76.33c-.07-.22-.19-.42-.26-.63A3.25,3.25,0,0,1,65,71.46Z"/><path class="cls-1" d="M16.78,34.71c-.51-.17-1-.33-1.54-.52-.21-.08-.38-.25-.59-.34a1.31,1.31,0,0,0-1.5,2.06c.18.22.43.4.63.61A3.19,3.19,0,0,1,9.6,41.31,1,1,0,0,1,9.26,40a.93.93,0,0,1,1.19-.36c.18.06.34.19.53.25a1.27,1.27,0,0,0,1.53-.52,1.29,1.29,0,0,0-.08-1.54c-.17-.2-.38-.35-.56-.54a3.2,3.2,0,0,1,3.81-5.07c.2.11.38.25.59.35a1.3,1.3,0,0,0,1.52-2.08c-.19-.22-.43-.39-.62-.61a3.2,3.2,0,0,1,3.72-5,2.52,2.52,0,0,1,.72.48.85.85,0,0,1,.14,1.08.91.91,0,0,1-1.09.43c-.21-.07-.4-.22-.61-.29a1.3,1.3,0,0,0-1.42,2.11c.14.17.33.31.49.47a3.14,3.14,0,0,1,.69,3.51A3.39,3.39,0,0,1,16.78,34.71Z"/><path class="cls-1" d="M83.22,34.64c-.28-.09-.82-.27-1.36-.47-.18-.06-.33-.22-.51-.29a1.33,1.33,0,0,0-1.64.43,1.29,1.29,0,0,0,.1,1.62c.19.22.43.4.63.61a3.2,3.2,0,0,1-3.72,5.05,2.46,2.46,0,0,1-.58-.36.87.87,0,0,1-.27-1.13A.89.89,0,0,1,77,39.65a5.05,5.05,0,0,1,.53.24A1.31,1.31,0,0,0,79,37.77c-.15-.17-.34-.3-.5-.46a3.2,3.2,0,0,1,3.76-5.09c.23.12.44.28.68.39a1.3,1.3,0,0,0,1.58-.34,1.33,1.33,0,0,0,0-1.7c-.19-.22-.43-.39-.63-.61a3.2,3.2,0,0,1,3.62-5.1,2.65,2.65,0,0,1,.73.46.92.92,0,0,1,.17,1.16.94.94,0,0,1-1.1.39c-.15-.05-.29-.16-.44-.22a1.31,1.31,0,0,0-1.48,2.14c.16.17.35.3.5.47a3.06,3.06,0,0,1,.58,3.44A3.21,3.21,0,0,1,83.22,34.64Z"/><path class="cls-1" d="M117.79,37.81a3.32,3.32,0,0,1-3-4.5c.11-.27.28-.52.38-.79a1.3,1.3,0,0,0-.49-1.63,1.28,1.28,0,0,0-1.68.24c-.2.21-.36.46-.57.66a3.2,3.2,0,0,1-5.2-3.5,2.2,2.2,0,0,1,.4-.66.91.91,0,0,1,1.56.77,7.16,7.16,0,0,1-.25.74,1.28,1.28,0,0,0,.6,1.5,1.25,1.25,0,0,0,1.6-.23c.19-.19.32-.41.5-.6a3.2,3.2,0,0,1,5.27,3.47c-.1.24-.25.46-.35.7a1.3,1.3,0,0,0,.5,1.62,1.33,1.33,0,0,0,1.68-.24c.18-.18.32-.41.5-.59a3.2,3.2,0,0,1,5.31,3.35,2.66,2.66,0,0,1-.32.6.92.92,0,0,1-1.64-.81c0-.15.14-.29.19-.44a1.33,1.33,0,0,0-.57-1.61,1.37,1.37,0,0,0-1.68.3,5.45,5.45,0,0,1-1,1A10.85,10.85,0,0,1,117.79,37.81Z"/><path class="cls-1" d="M191.49,103.66a13.43,13.43,0,0,1-.52,1.55.92.92,0,0,1-1.29.5.94.94,0,0,1-.42-1.25c0-.12.12-.24.16-.36a1.3,1.3,0,0,0-.57-1.6,1.28,1.28,0,0,0-1.67.31c-.15.16-.28.36-.43.52a3.24,3.24,0,0,1-4.1.49,3.18,3.18,0,0,1-1.17-4c.09-.21.22-.4.31-.61a1.31,1.31,0,0,0-2.21-1.4c-.17.19-.32.41-.5.59a3.2,3.2,0,0,1-5.27-3.33,2.7,2.7,0,0,1,.48-.84.81.81,0,0,1,1.06-.19.91.91,0,0,1,.49,1c-.06.22-.2.42-.26.64a1.31,1.31,0,0,0,2.2,1.29c.18-.18.32-.41.5-.59a3.2,3.2,0,0,1,5.28,3.45c-.09.21-.22.4-.31.61a1.32,1.32,0,0,0,.46,1.72,1.25,1.25,0,0,0,1.74-.32,3.66,3.66,0,0,1,1.93-1.39A3.3,3.3,0,0,1,191.49,103.66Z"/><path class="cls-1" d="M24.82,129.89a4,4,0,0,0,.49,0,1.29,1.29,0,0,0,1.16-1.13,1.31,1.31,0,0,0-.85-1.39c-.27-.1-.56-.13-.84-.22a3.16,3.16,0,0,1-2.2-3.39,3.2,3.2,0,0,1,2.87-2.85,2,2,0,0,1,.49,0c.65.06,1,.41,1,1s-.34.86-1,.94a4,4,0,0,0-.49,0,1.33,1.33,0,0,0-1,1.17,1.28,1.28,0,0,0,.82,1.31c.27.11.57.15.84.23a3.2,3.2,0,0,1-.79,6.26c-.26,0-.52,0-.78,0a1.3,1.3,0,0,0-.32,2.55c.28.09.57.13.85.22a3.2,3.2,0,0,1-1.16,6.22c-.71,0-1.12-.37-1.11-.95s.32-.85,1-.94c.13,0,.26,0,.39,0a1.33,1.33,0,0,0,1.11-1.19,1.34,1.34,0,0,0-.92-1.35c-.21-.07-.44-.09-.66-.16a3.17,3.17,0,0,1-2.32-3.49,3.21,3.21,0,0,1,3.12-2.81h.29Z"/><path class="cls-1" d="M150.07,34.76c-.59-.24-1.17-.49-1.78-.7a2.57,2.57,0,0,0-1.1-.26,1.27,1.27,0,0,0-.77,2.09c.18.23.43.4.63.61a3.2,3.2,0,0,1-3.64,5.11,2.74,2.74,0,0,1-.65-.41.87.87,0,0,1-.22-1.14.9.9,0,0,1,1.09-.43c.21.06.4.2.62.28a1.29,1.29,0,0,0,1.54-.48,1.25,1.25,0,0,0,0-1.55,5.5,5.5,0,0,0-.49-.47A3.21,3.21,0,0,1,149,32.29c.2.11.39.25.6.34a1.28,1.28,0,0,0,1.56-.4,1.26,1.26,0,0,0,0-1.62c-.21-.25-.48-.44-.69-.69a3.21,3.21,0,0,1-.15-4,3.16,3.16,0,0,1,3.93-.95,2.07,2.07,0,0,1,.7.51.8.8,0,0,1,0,1.07.87.87,0,0,1-1,.38c-.16-.05-.29-.15-.44-.21a1.33,1.33,0,0,0-1.74.38,1.29,1.29,0,0,0,.23,1.76c.16.16.35.3.5.47a3.09,3.09,0,0,1,.54,3.45A3.4,3.4,0,0,1,150.07,34.76Z"/><path class="cls-1" d="M24.94,65.16a3.84,3.84,0,0,0-.48,0,1.29,1.29,0,0,0-1.19,1.11,1.31,1.31,0,0,0,.83,1.4c.27.11.57.14.84.23a3.16,3.16,0,0,1,2.22,3.47,3.2,3.2,0,0,1-2.84,2.77,1.7,1.7,0,0,1-.39,0c-.72,0-1.13-.38-1.14-.94s.33-.88,1.09-1,1.35-.5,1.43-1.19S25,69.84,24,69.62a3.21,3.21,0,0,1,.37-6.36c.25,0,.52,0,.77,0a1.32,1.32,0,0,0,1.29-1.12,1.29,1.29,0,0,0-.91-1.43c-.25-.08-.51-.12-.76-.19a3.2,3.2,0,0,1-2.18-3.67,3.16,3.16,0,0,1,3.29-2.58c.63,0,1,.32,1,.82a.87.87,0,0,1-.7,1c-.25.06-.52,0-.77.09a1.3,1.3,0,0,0-1,1.15,1.32,1.32,0,0,0,.8,1.32,2.32,2.32,0,0,0,.47.13,3.21,3.21,0,0,1-.77,6.37Z"/><path class="cls-1" d="M43.56,166a3.18,3.18,0,0,1-2.92-4.54c.13-.25.31-.57.54-.65a1.44,1.44,0,0,1,1,0,.76.76,0,0,1,.37.92c0,.22-.18.42-.24.63a1.31,1.31,0,0,0,.53,1.53,1.33,1.33,0,0,0,1.62-.17c.16-.16.29-.36.44-.53a3.16,3.16,0,0,1,4.14-.62,3.21,3.21,0,0,1,1.17,4.11c-.09.17-.19.34-.27.52a1.31,1.31,0,0,0,2.18,1.41c.2-.21.36-.46.57-.66a3.22,3.22,0,0,1,4-.32,3.18,3.18,0,0,1,1.15,3.8,2.33,2.33,0,0,1-.38.67.92.92,0,0,1-1.59-.87c.05-.15.14-.29.2-.44a1.33,1.33,0,0,0-.49-1.63,1.29,1.29,0,0,0-1.75.3c-.14.14-.24.31-.37.45a3.2,3.2,0,0,1-5.3-3.44c.09-.21.22-.4.3-.61a1.29,1.29,0,0,0-.49-1.7,1.3,1.3,0,0,0-1.68.26c-.27.28-.5.61-.79.86A2.92,2.92,0,0,1,43.56,166Z"/><path class="cls-1" d="M191.48,170.3a10.29,10.29,0,0,1-.51,1.54.94.94,0,0,1-1.29.52,1,1,0,0,1-.42-1.26c.05-.15.14-.29.19-.45a1.3,1.3,0,0,0-.51-1.45,1.28,1.28,0,0,0-1.62.11c-.19.18-.33.4-.51.59a3.2,3.2,0,0,1-5.3-3.47c.11-.24.26-.46.35-.7a1.3,1.3,0,0,0-2.06-1.44c-.24.21-.42.49-.65.72a3.2,3.2,0,0,1-5.34-3.24,2.62,2.62,0,0,1,.4-.78.92.92,0,0,1,1.59.89c-.06.21-.19.41-.24.63a1.31,1.31,0,0,0,2.15,1.26,4.47,4.47,0,0,0,.44-.52,3.18,3.18,0,0,1,4.22-.64,3.22,3.22,0,0,1,1.11,4.13c-.08.18-.2.34-.27.52a1.31,1.31,0,0,0,.49,1.63,1.3,1.3,0,0,0,1.68-.22c.18-.19.32-.41.5-.6a3.22,3.22,0,0,1,3.5-.76A3.38,3.38,0,0,1,191.48,170.3Z"/><path class="cls-1" d="M149.83,168c-.28-.1-.8-.27-1.3-.47-.21-.08-.39-.25-.59-.33a1.3,1.3,0,0,0-1.57.43,1.25,1.25,0,0,0,.07,1.62c.21.25.48.44.69.68a3.2,3.2,0,0,1-3.83,5,2.47,2.47,0,0,1-.63-.44.87.87,0,0,1-.07-1.16.84.84,0,0,1,1-.33c.25.09.47.23.72.31a1.29,1.29,0,0,0,1.45-.52,1.25,1.25,0,0,0-.07-1.54,5.44,5.44,0,0,0-.49-.47,3.21,3.21,0,0,1,3.82-5.11,3.75,3.75,0,0,0,.68.37,1.31,1.31,0,0,0,1.48-.46,1.26,1.26,0,0,0-.07-1.62c-.19-.22-.43-.39-.63-.61a3.2,3.2,0,0,1,3.68-5.08,2.42,2.42,0,0,1,.58.35.92.92,0,0,1-.93,1.58c-.18-.06-.34-.18-.52-.24a1.29,1.29,0,0,0-1.49.42,1.26,1.26,0,0,0,0,1.62c.18.22.42.4.62.61a3.2,3.2,0,0,1,.58,3.54A3.3,3.3,0,0,1,149.83,168Z"/><path class="cls-1" d="M130.72,10.1a3.35,3.35,0,0,1-2.21,3.09,3.22,3.22,0,0,1-3.59-1.06c-.16-.2-.27-.44-.44-.64a1.3,1.3,0,0,0-2.26,1.2c.07.28.22.54.31.82a3.2,3.2,0,0,1-5.36,3.18,2.93,2.93,0,0,1-.55-.8.9.9,0,0,1,.34-1.11.93.93,0,0,1,1.16.11c.15.14.24.32.38.45a1.28,1.28,0,0,0,1.68.24A1.32,1.32,0,0,0,120.7,14c-.07-.24-.19-.48-.28-.72a3.2,3.2,0,0,1,5.51-3c.18.22.32.49.51.71a1.26,1.26,0,0,0,1.66.32,1.28,1.28,0,0,0,.6-1.51c-.07-.28-.22-.54-.3-.82a3.18,3.18,0,0,1,1.48-3.76,3.22,3.22,0,0,1,3.93.64,2.63,2.63,0,0,1,.47.72A.89.89,0,0,1,134,7.7a.94.94,0,0,1-1.17-.11c-.09-.08-.16-.2-.25-.3a1.3,1.3,0,0,0-1.8-.38,1.38,1.38,0,0,0-.43,1.81C130.47,9.17,130.58,9.64,130.72,10.1Z"/><path class="cls-1" d="M147.67,98.49c.3.09.82.25,1.34.43.18.07.32.21.5.3a1.3,1.3,0,0,0,1.67-.32,1.28,1.28,0,0,0-.11-1.76c-.2-.22-.44-.39-.63-.61a3.24,3.24,0,0,1-.08-4.06,3.2,3.2,0,0,1,3.87-.91,2.34,2.34,0,0,1,.71.5.82.82,0,0,1,.13,1,.85.85,0,0,1-1,.49,4.93,4.93,0,0,1-.72-.29,1.29,1.29,0,0,0-1.56.43,1.27,1.27,0,0,0,.06,1.62,5.44,5.44,0,0,0,.49.47,3.2,3.2,0,0,1-3.8,5.1c-.2-.11-.38-.25-.58-.35a1.29,1.29,0,0,0-1.58.36,1.27,1.27,0,0,0,0,1.62c.2.25.48.45.69.69a3.19,3.19,0,0,1-3.8,5,2.13,2.13,0,0,1-.56-.38.89.89,0,0,1-.16-1.15.91.91,0,0,1,1.11-.38c.18.06.34.19.52.26a1.32,1.32,0,0,0,1.63-.51,1.27,1.27,0,0,0-.17-1.61c-.2-.22-.44-.39-.63-.61a3.08,3.08,0,0,1-.51-3.38A3.21,3.21,0,0,1,147.67,98.49Z"/><path class="cls-1" d="M56.81,9.13a3.1,3.1,0,0,1,2.59,1.31c.14.18.24.39.39.56a1.27,1.27,0,0,0,1.58.35,1.3,1.3,0,0,0,.69-1.56c-.07-.25-.21-.47-.29-.72a3.2,3.2,0,0,1,5.39-3.21,2.57,2.57,0,0,1,.4.55.93.93,0,0,1-.25,1.3,1,1,0,0,1-1.24-.19c-.13-.13-.22-.32-.36-.45a1.28,1.28,0,0,0-1.62-.16,1.31,1.31,0,0,0-.54,1.53c.08.24.21.47.29.72A3.19,3.19,0,0,1,62.32,13a3.23,3.23,0,0,1-4-.85c-.18-.23-.31-.5-.51-.72a1.31,1.31,0,0,0-2.21,1.26c.08.28.22.54.31.81a3.2,3.2,0,0,1-5.47,3.07A2.31,2.31,0,0,1,50,16a1,1,0,0,1,.29-1.22.93.93,0,0,1,1.23.18c.11.11.19.26.3.38a1.28,1.28,0,0,0,1.59.29A1.32,1.32,0,0,0,54.06,14c-.07-.24-.21-.47-.29-.72A3.18,3.18,0,0,1,56.81,9.13Z"/><path class="cls-1" d="M199.74,74.46l-.58-.56a1.36,1.36,0,0,0-1.74-.37,1.33,1.33,0,0,0-.51,1.71,7.84,7.84,0,0,1,.34,1.11,3.19,3.19,0,0,1-5.67,2.44c-.14-.18-.24-.38-.38-.56a1.36,1.36,0,0,0-1.74-.41,1.34,1.34,0,0,0-.55,1.69,7.63,7.63,0,0,1,.34,1A3.15,3.15,0,0,1,187.5,84a3.21,3.21,0,0,1-3.88-.88,2.42,2.42,0,0,1-.35-.58.87.87,0,0,1,.33-1.11.83.83,0,0,1,1.08,0,3.31,3.31,0,0,1,.39.44,1.32,1.32,0,0,0,1.75.31,1.31,1.31,0,0,0,.46-1.71c-.06-.18-.15-.36-.21-.54a3.2,3.2,0,0,1,5.57-3c.18.23.32.5.51.71a1.31,1.31,0,0,0,2.21-1.27c-.1-.31-.26-.6-.34-.91a3,3,0,0,1,1-3.27,3.08,3.08,0,0,1,3.28-.58.91.91,0,0,1,.73,1c0,.55,0,1.1,0,1.65Z"/><path class="cls-1" d="M199.76,7.82c-.18-.16-.37-.31-.54-.49-.62-.67-1.17-.81-1.79-.45s-.77,1-.46,1.88a4.62,4.62,0,0,1,.31,1.32,3.13,3.13,0,0,1-2.08,3.1,3.25,3.25,0,0,1-3.61-1c-.18-.23-.31-.5-.51-.71a1.26,1.26,0,0,0-1.59-.29,1.3,1.3,0,0,0-.65,1.49c.08.28.23.54.32.82a3.2,3.2,0,0,1-5.39,3.18,3,3,0,0,1-.52-.81.82.82,0,0,1,.33-1,.85.85,0,0,1,1.08,0,2.2,2.2,0,0,1,.33.35c.6.66,1.18.81,1.8.44a1.33,1.33,0,0,0,.47-1.79,3.36,3.36,0,0,1-.26-2.27,3.21,3.21,0,0,1,5.61-1.21c.19.22.32.49.51.71a1.26,1.26,0,0,0,1.6.28,1.3,1.3,0,0,0,.62-1.57c-.11-.34-.28-.67-.36-1a3,3,0,0,1,1.12-3.22,3.15,3.15,0,0,1,3.31-.43A.81.81,0,0,1,200,6c0,.58,0,1.16,0,1.74Z"/><path class="cls-1" d="M199.72,141.14c-.21-.23-.42-.47-.64-.69a1.29,1.29,0,0,0-1.59-.31,1.31,1.31,0,0,0-.64,1.58c.06.21.18.42.25.63a3.2,3.2,0,0,1-5.58,3c-.13-.18-.24-.39-.38-.56a1.32,1.32,0,0,0-2.27,1.26c.08.24.22.47.3.72a3.2,3.2,0,0,1-5.47,3.08,2.67,2.67,0,0,1-.42-.65.89.89,0,0,1,.3-1.12.92.92,0,0,1,1.17.08c.16.15.27.36.44.51a1.32,1.32,0,0,0,1.61.2,1.28,1.28,0,0,0,.56-1.52c-.06-.22-.18-.42-.26-.63a3.21,3.21,0,0,1,5.58-3c.13.18.24.39.38.56a1.34,1.34,0,0,0,1.67.35,1.32,1.32,0,0,0,.61-1.58c-.1-.31-.26-.6-.34-.92a3,3,0,0,1,1-3.17,3.05,3.05,0,0,1,3.27-.62.89.89,0,0,1,.72,1c0,.57,0,1.14,0,1.72Z"/><path class="cls-1" d="M131.61,153.07a2.64,2.64,0,0,1-.64,1.8c-1.59,2-3.17,3.95-4.8,5.89a2.86,2.86,0,1,1-4.45-3.58q2.39-3,4.86-6a2.74,2.74,0,0,1,3.26-.81A2.82,2.82,0,0,1,131.61,153.07Zm-1.78-.07c-.22-.28-.37-.66-.64-.78a1.43,1.43,0,0,0-1,.07c-.24.1-.41.4-.6.62-1.16,1.43-2.33,2.86-3.49,4.3-.33.4-.68.79-1,1.22a1,1,0,0,0,.18,1.31,1,1,0,0,0,1.32-.09,1.37,1.37,0,0,0,.2-.22c1.51-1.86,3-3.71,4.53-5.58A5.83,5.83,0,0,0,129.83,153Z"/><path class="cls-1" d="M104.65,150.46a7.63,7.63,0,0,1-1.55-.68c-2-1.51-4-3-6-4.61a2.86,2.86,0,1,1,3.46-4.56c2.06,1.53,4.11,3.07,6.11,4.68a2.84,2.84,0,0,1-.77,4.9A9.91,9.91,0,0,1,104.65,150.46Zm1.17-3a1.32,1.32,0,0,0-.7-1l-5.41-4.14a2.65,2.65,0,0,0-.57-.37.94.94,0,0,0-1.13.3,1,1,0,0,0,.06,1.25,3.1,3.1,0,0,0,.51.44l5.26,4a2.82,2.82,0,0,0,.74.45A1,1,0,0,0,105.82,147.48Z"/><path class="cls-1" d="M41.05,14.27A2.84,2.84,0,0,1,37,16.8a4.53,4.53,0,0,1-.66-.41L30.5,12a2.88,2.88,0,0,1-1.23-2.32,2.86,2.86,0,0,1,4.27-2.54,3.14,3.14,0,0,1,.48.33c1.94,1.48,3.88,2.95,5.8,4.44A2.77,2.77,0,0,1,41.05,14.27Zm-9-5.78c-.28.23-.66.39-.77.67a1.48,1.48,0,0,0,.07,1c.08.22.36.37.56.52,1.75,1.35,3.51,2.69,5.26,4a3.26,3.26,0,0,0,.64.43.94.94,0,0,0,1.33-.82,1.58,1.58,0,0,0-.54-1c-1.88-1.48-3.8-2.93-5.71-4.38A6.9,6.9,0,0,0,32.07,8.49Z"/><path class="cls-1" d="M129.16,83.55A2.62,2.62,0,0,1,131.23,85a2.72,2.72,0,0,1,0,2.87,4.31,4.31,0,0,1-.39.56q-2.28,2.79-4.55,5.59a2.87,2.87,0,0,1-4.72-3.27l.17-.24c1.6-2,3.2-3.93,4.81-5.89A3,3,0,0,1,129.16,83.55Zm-5,9.76a5.27,5.27,0,0,0,.78-.68q2.16-2.62,4.3-5.28c.57-.71.6-1.31.1-1.7s-1-.25-1.64.47c-1.44,1.76-2.86,3.52-4.29,5.28a2.06,2.06,0,0,0-.38.56C122.77,92.63,123.26,93.33,124.18,93.31Z"/><path class="cls-1" d="M123.93,28.55a2.86,2.86,0,0,1-2.46-4.31,2.16,2.16,0,0,1,.27-.4c1.58-1.94,3.13-3.9,4.75-5.8a3.57,3.57,0,0,1,1.5-1,2.75,2.75,0,0,1,3.1,1.06,2.87,2.87,0,0,1,0,3.29,2.34,2.34,0,0,1-.24.31l-4.6,5.67A2.88,2.88,0,0,1,123.93,28.55Zm.25-1.89a4.83,4.83,0,0,0,.73-.62c1.46-1.77,2.88-3.58,4.37-5.34.58-.68.5-1.38.07-1.71s-1-.25-1.64.49l-4.23,5.21a3,3,0,0,0-.44.63C122.77,26,123.28,26.7,124.18,26.66Z"/><path class="cls-1" d="M54.43,92.25a2.59,2.59,0,0,1,.62-1.7c1.61-2,3.21-4,4.86-6a2.83,2.83,0,0,1,4-.39,2.8,2.8,0,0,1,.42,4c-1.59,2-3.21,4-4.85,6a2.81,2.81,0,0,1-3.27.85A2.88,2.88,0,0,1,54.43,92.25Zm8.76-5.87c-.22-.29-.37-.67-.64-.79a1.42,1.42,0,0,0-1,0c-.22.07-.38.34-.54.54-1.39,1.71-2.79,3.42-4.18,5.14a4,4,0,0,0-.44.63,1,1,0,0,0,1.43,1.18,1.57,1.57,0,0,0,.35-.33c1.52-1.86,3-3.72,4.54-5.59A6,6,0,0,0,63.19,86.38Z"/><path class="cls-1" d="M54.43,158.92a2.59,2.59,0,0,1,.61-1.71c1.61-2,3.21-4,4.86-6a2.86,2.86,0,0,1,4.45,3.59q-2.41,3.06-4.92,6a2.76,2.76,0,0,1-3.19.79A2.87,2.87,0,0,1,54.43,158.92ZM63.17,153c-.19-.25-.33-.64-.6-.76a1.47,1.47,0,0,0-1,0c-.22.07-.38.34-.54.54l-4.18,5.13a3.35,3.35,0,0,0-.48.72.91.91,0,0,0,.89,1.26,1.31,1.31,0,0,0,.83-.4c1.59-1.92,3.16-3.86,4.73-5.81A3.38,3.38,0,0,0,63.17,153Z"/><path class="cls-1" d="M98.86,73.25a7.92,7.92,0,0,1,1.65.72q3.06,2.25,6,4.61a2.86,2.86,0,1,1-3.45,4.56C101,81.61,99,80.05,97,78.46a2.77,2.77,0,0,1-.9-3.24A3.15,3.15,0,0,1,98.86,73.25Zm-.1,1.9c-.28.2-.66.34-.8.61a1.68,1.68,0,0,0,0,1c0,.16.25.3.4.41L104,81.48a1.79,1.79,0,0,0,.59.32,1,1,0,0,0,1-1.53,2.28,2.28,0,0,0-.36-.33L99.6,75.62A8.47,8.47,0,0,0,98.76,75.15Z"/><path class="cls-1" d="M195.87,83.56c1.74,0,3.1,2.35,2,4.25a1.28,1.28,0,0,1-.15.25c-1.71,2.09-3.38,4.2-5.12,6.25a2.59,2.59,0,0,1-2.66.82,2.84,2.84,0,0,1-1.89-4.19,4.31,4.31,0,0,1,.39-.56l4.61-5.67A3.16,3.16,0,0,1,195.87,83.56Zm.55,2.92c-.1-.5-.26-.84-.69-1a1,1,0,0,0-1.2.41c-1.53,1.89-3.08,3.77-4.6,5.67-.48.6-.43,1.16.07,1.53s1,.28,1.44-.28q2.33-2.82,4.6-5.66A3.72,3.72,0,0,0,196.42,86.48Z"/><path class="cls-1" d="M165.51,73.25a8.27,8.27,0,0,1,1.66.73c2,1.5,4.05,3,6,4.61a2.86,2.86,0,1,1-3.45,4.55q-3.09-2.3-6.11-4.68a2.83,2.83,0,0,1-.91-3.25A3.19,3.19,0,0,1,165.51,73.25Zm0,2a1.05,1.05,0,0,0-1,.62.94.94,0,0,0,.37,1.2q2.93,2.26,5.88,4.49a1,1,0,0,0,1.47-.06,1,1,0,0,0-.31-1.51c-1.92-1.49-3.85-3-5.79-4.43A2.51,2.51,0,0,0,165.53,75.24Z"/><path class="cls-1" d="M107.72,14.22a2.89,2.89,0,0,1-4.2,2.55,3.54,3.54,0,0,1-.41-.26c-2-1.56-4.09-3.1-6.11-4.68a2.7,2.7,0,0,1-1-2.77,2.85,2.85,0,0,1,4.38-1.87c.47.3.89.66,1.33,1,1.6,1.22,3.19,2.45,4.8,3.66A3,3,0,0,1,107.72,14.22Zm-9-5.73c-.29.23-.67.39-.78.67a1.49,1.49,0,0,0,.07,1c.08.21.36.36.56.52l5.26,4a3.33,3.33,0,0,0,.65.43.87.87,0,0,0,1.12-.29.9.9,0,0,0,0-1.17,1.62,1.62,0,0,0-.35-.34L99.56,9A6.9,6.9,0,0,0,98.72,8.49Z"/><path class="cls-1" d="M32.21,73.25a7.63,7.63,0,0,1,1.65.72Q37,76.25,40,78.64a2.84,2.84,0,0,1,.49,4,2.78,2.78,0,0,1-3.91.56q-3.18-2.34-6.27-4.8a2.74,2.74,0,0,1-.84-3.17A3.12,3.12,0,0,1,32.21,73.25Zm7,7.67a1.3,1.3,0,0,0-.65-1L33,75.64a2.63,2.63,0,0,0-.41-.27,1,1,0,0,0-1.14,1.52,3.67,3.67,0,0,0,.52.44c1.75,1.34,3.5,2.69,5.25,4a2.49,2.49,0,0,0,.65.42A1,1,0,0,0,39.19,80.92Z"/><path class="cls-1" d="M171.47,150.37a2.57,2.57,0,0,1-1.74-.59c-2-1.54-4-3.06-6-4.62a2.86,2.86,0,0,1-.58-4,2.82,2.82,0,0,1,4.06-.54c2,1.51,4,3.06,6,4.62a2.85,2.85,0,0,1-1.75,5.13Zm1-3c0-.35-.32-.61-.66-.87l-5.48-4.19a2.21,2.21,0,0,0-.4-.28,1,1,0,0,0-1.29.29.92.92,0,0,0,.12,1.24,4,4,0,0,0,.45.37l5.33,4.07a2.42,2.42,0,0,0,.66.41C171.82,148.66,172.45,148.2,172.45,147.38Z"/><path class="cls-1" d="M38.16,150.51a7.48,7.48,0,0,1-1.66-.71c-2.06-1.51-4.1-3.07-6.11-4.66a2.86,2.86,0,0,1,3.44-4.56c2.08,1.55,4.15,3.13,6.18,4.74a2.76,2.76,0,0,1,.85,3.25A3.13,3.13,0,0,1,38.16,150.51Zm-5.91-8.6a1,1,0,0,0-.94,1.49,1.56,1.56,0,0,0,.41.4l5.64,4.32a2,2,0,0,0,.59.32.87.87,0,0,0,1-.34A.89.89,0,0,0,39,147a1.57,1.57,0,0,0-.33-.35c-2-1.5-3.91-3-5.88-4.49A2.2,2.2,0,0,0,32.25,141.91Z"/><path class="cls-1" d="M165.47,6.58a8,8,0,0,1,1.66.73c2.07,1.52,4.1,3.07,6.12,4.66a2.86,2.86,0,0,1-3.47,4.54c-2.06-1.52-4.09-3.09-6.11-4.67a2.83,2.83,0,0,1-.95-3.23A3.23,3.23,0,0,1,165.47,6.58Zm7,7.58c0-.43-.32-.69-.66-.95L166.3,9a3.51,3.51,0,0,0-.4-.27,1,1,0,0,0-1.15,1.54,3.28,3.28,0,0,0,.45.37l5.33,4.08a2.7,2.7,0,0,0,.57.38A1,1,0,0,0,172.45,14.16Z"/><path class="cls-1" d="M190.19,28.54a2.58,2.58,0,0,1-2.1-1.43,2.78,2.78,0,0,1,0-2.88,2.18,2.18,0,0,1,.22-.31c1.62-2,3.22-4,4.86-6a2.82,2.82,0,0,1,3.25-.86,2.85,2.85,0,0,1,1.47,4,4.52,4.52,0,0,1-.5.71L193,27.28A3,3,0,0,1,190.19,28.54Zm6.21-8.69a1.08,1.08,0,0,0-.68-1,1,1,0,0,0-1.19.43c-1.53,1.89-3.08,3.77-4.6,5.67a1,1,0,0,0,0,1.47c.47.42,1,.36,1.52-.23q2.33-2.82,4.61-5.67A2.85,2.85,0,0,0,196.4,19.85Z"/><path class="cls-1" d="M190.73,161.86a2.9,2.9,0,0,1-2.66-4.27,3.5,3.5,0,0,1,.4-.55l4.61-5.67a2.8,2.8,0,0,1,2.82-1.14,2.86,2.86,0,0,1,1.85,4.46c-.33.48-.73.92-1.09,1.37-1.25,1.54-2.51,3.07-3.75,4.61A2.91,2.91,0,0,1,190.73,161.86Zm-.08-1.91c.39,0,.66-.3.93-.63,1.43-1.76,2.87-3.52,4.3-5.29a3.63,3.63,0,0,0,.39-.55.88.88,0,0,0-.22-1.14.9.9,0,0,0-1.17-.09,2.56,2.56,0,0,0-.54.55c-1.41,1.73-2.83,3.47-4.23,5.21a2.52,2.52,0,0,0-.44.64A1,1,0,0,0,190.65,160Z"/><path class="cls-1" d="M57.28,28.54a2.71,2.71,0,0,1-2.48-1.43,2.76,2.76,0,0,1,0-2.88,4.39,4.39,0,0,1,.46-.63c1.47-1.81,3-3.62,4.42-5.44A3.22,3.22,0,0,1,61.34,17a2.88,2.88,0,0,1,3.11,1.1,2.76,2.76,0,0,1,0,3.28c-.53.74-1.13,1.42-1.7,2.13-1,1.28-2.09,2.56-3.13,3.85A2.87,2.87,0,0,1,57.28,28.54Zm5.92-8.82c-.23-.29-.38-.64-.65-.79a1.22,1.22,0,0,0-.9,0c-.22.07-.4.32-.56.52l-4.3,5.28a3,3,0,0,0-.42.65.87.87,0,0,0,.3,1.05.83.83,0,0,0,1,.13,1.63,1.63,0,0,0,.52-.42c1.52-1.86,3-3.72,4.54-5.59A6.1,6.1,0,0,0,63.2,19.72Z"/><path class="cls-1" d="M128,46.38a5.22,5.22,0,0,1,.57.11c1.36.34,2.71.68,4.06,1,1,.27,1.21.58.95,1.61-.34,1.39-.68,2.77-1,4.15-.25,1-.62,1.17-1.57.94-1.42-.35-2.83-.72-4.24-1.1-.91-.24-1.11-.58-.89-1.48.36-1.45.72-2.9,1.1-4.34C127.14,46.62,127.46,46.36,128,46.38Zm3.62,2.85-3-.77-.77,3,3,.75Z"/><path class="cls-1" d="M112.85,134.31a8.81,8.81,0,0,1,.86.47q1.77,1.29,3.53,2.61c.77.58.83,1,.29,1.71q-1.31,1.83-2.66,3.61c-.57.73-1,.78-1.73.22-1.18-.86-2.36-1.72-3.52-2.6-.77-.58-.84-1-.3-1.71q1.31-1.83,2.67-3.6A4.58,4.58,0,0,1,112.85,134.31Zm.9,6.73,1.87-2.51-2.52-1.86-1.86,2.52Z"/><path class="cls-1" d="M67.08,181.9c0,.12,0,.28-.09.44-.37,1.44-.72,2.89-1.11,4.33-.24.87-.59,1.07-1.43.87-1.45-.35-2.89-.72-4.34-1.1-.89-.23-1.12-.61-.9-1.5.35-1.45.72-2.89,1.11-4.34.23-.84.6-1.06,1.43-.86,1.48.36,3,.74,4.43,1.13C66.81,181,67.07,181.35,67.08,181.9ZM62,181.74l-.76,3,3,.76.76-3Z"/><path class="cls-1" d="M87.84,115.39c-.17.22-.3.56-.54.71q-2.08,1.35-4.22,2.62a.84.84,0,0,1-1.27-.29c-.9-1.39-1.78-2.79-2.62-4.21a.89.89,0,0,1,.31-1.35q2.09-1.35,4.22-2.62a.85.85,0,0,1,1.27.3c.91,1.41,1.79,2.86,2.67,4.3A3.05,3.05,0,0,1,87.84,115.39ZM81.24,114l1.66,2.66L85.55,115l-1.65-2.65Z"/><path class="cls-1" d="M15.86,185.59c-.25-.2-.6-.35-.77-.62-.87-1.33-1.71-2.69-2.52-4.05-.39-.65-.28-1,.38-1.48q2-1.26,4-2.46c.7-.42,1.1-.32,1.55.39q1.23,1.92,2.41,3.89c.42.7.33,1.14-.33,1.56-1.31.85-2.64,1.66-4,2.47A5.43,5.43,0,0,1,15.86,185.59ZM17.25,179l-2.66,1.65,1.67,2.65,2.64-1.64Z"/><path class="cls-1" d="M118,71.66a7.39,7.39,0,0,1-.41.77c-.9,1.23-1.8,2.46-2.72,3.68-.51.66-.92.72-1.59.25-1.26-.91-2.52-1.84-3.75-2.78a.93.93,0,0,1-.24-1.51c.91-1.27,1.83-2.52,2.78-3.76.51-.66.91-.73,1.58-.25,1.26.91,2.52,1.83,3.75,2.79A3.78,3.78,0,0,1,118,71.66Zm-6.72.88,2.51,1.86,1.86-2.51L113.1,70Z"/><path class="cls-1" d="M128.09,113a3.11,3.11,0,0,1,.34,0l4.33,1.12c.89.24,1.09.59.86,1.51-.34,1.41-.7,2.83-1.07,4.24-.24.91-.59,1.13-1.48.92-1.45-.35-2.9-.71-4.34-1.1-.9-.24-1.09-.59-.86-1.51.34-1.41.7-2.83,1.07-4.24C127.14,113.25,127.42,113,128.09,113Zm3.56,2.81a26.86,26.86,0,0,0-3.06-.67l-.73,2.95,3,.75Z"/><path class="cls-1" d="M184.6,5a6.46,6.46,0,0,1-.38.75c-.9,1.23-1.8,2.46-2.72,3.68a1,1,0,0,1-1.66.25c-1.23-.89-2.46-1.8-3.67-2.72a1,1,0,0,1-.24-1.59c.91-1.26,1.83-2.51,2.78-3.75a1,1,0,0,1,1.52-.22q1.94,1.38,3.82,2.84A3.37,3.37,0,0,1,184.6,5Zm-6.71.89,2.51,1.86,1.86-2.52-2.51-1.85Z"/><path class="cls-1" d="M154.49,182c-.16.23-.28.56-.52.72-1.39.9-2.8,1.78-4.22,2.62a.88.88,0,0,1-1.34-.33q-1.32-2.06-2.57-4.14a.91.91,0,0,1,.36-1.41q2-1.29,4.05-2.52a.9.9,0,0,1,1.43.3c.88,1.36,1.72,2.75,2.57,4.13A3.83,3.83,0,0,1,154.49,182Zm-6.6-1.38,1.65,2.66,2.65-1.66L150.55,179Z"/><path class="cls-1" d="M154.51,115.38a3.37,3.37,0,0,1-.63.77c-1.33.87-2.69,1.7-4,2.52-.64.38-1.05.27-1.48-.38q-1.26-2-2.46-4c-.42-.7-.31-1.1.4-1.55,1.28-.83,2.58-1.63,3.88-2.42.71-.42,1.14-.33,1.57.34.84,1.31,1.65,2.64,2.47,4A7.23,7.23,0,0,1,154.51,115.38Zm-2.31-.4-1.66-2.64L147.89,114c.58.92,1.1,1.75,1.65,2.64Z"/><path class="cls-1" d="M46.47,1.16a6.07,6.07,0,0,1,.6.33c1.18.86,2.36,1.73,3.52,2.6.77.58.82,1,.23,1.81C50,7.05,49.13,8.2,48.28,9.34c-.6.8-1,.86-1.79.29C45.31,8.78,44.13,7.91,43,7c-.75-.56-.82-1-.29-1.72.87-1.21,1.77-2.4,2.65-3.6A1.16,1.16,0,0,1,46.47,1.16ZM44.59,5.89l2.52,1.86L49,5.23l-2.5-1.84Z"/><path class="cls-1" d="M151,43.41c.23.17.56.31.71.55.89,1.36,1.74,2.74,2.57,4.13a.9.9,0,0,1-.35,1.41q-2,1.29-4,2.51a.94.94,0,0,1-1.48-.37q-1.28-2-2.47-4c-.4-.66-.32-1.09.31-1.5,1.33-.86,2.69-1.69,4.05-2.51A3.15,3.15,0,0,1,151,43.41ZM149.55,50l2.65-1.65c-.57-.91-1.1-1.76-1.65-2.66l-2.66,1.67Z"/><path class="cls-1" d="M46.18,134.34a4.06,4.06,0,0,1,.75.35c1.26.91,2.52,1.83,3.75,2.78a1,1,0,0,1,.24,1.58c-.91,1.27-1.83,2.52-2.78,3.76a.93.93,0,0,1-1.51.22c-1.26-.91-2.52-1.84-3.75-2.78a1,1,0,0,1-.24-1.58c.91-1.27,1.83-2.52,2.78-3.75A3.54,3.54,0,0,1,46.18,134.34Zm-1.58,4.85,2.51,1.86L49,138.53l-2.52-1.85Z"/><path class="cls-1" d="M184.62,138.28a6.87,6.87,0,0,1-.47.85q-1.29,1.78-2.61,3.54c-.6.79-1,.83-1.79.23q-1.74-1.26-3.46-2.55c-.76-.58-.84-1-.27-1.8q1.26-1.76,2.55-3.46c.62-.81,1-.87,1.8-.29q1.78,1.27,3.53,2.61A5.29,5.29,0,0,1,184.62,138.28ZM180.4,141l1.85-2.52-2.5-1.85-1.85,2.5Z"/><path class="cls-1" d="M51.32,71.58a7.15,7.15,0,0,1-.44.88c-.88,1.21-1.76,2.41-2.66,3.6-.56.73-1,.78-1.73.22-1.18-.85-2.36-1.72-3.52-2.6-.78-.59-.83-1-.23-1.8.83-1.15,1.68-2.3,2.54-3.44.64-.84,1-.88,1.86-.25,1.16.84,2.31,1.69,3.44,2.56A5,5,0,0,1,51.32,71.58Zm-6.73,1,2.52,1.86L49,71.88,46.45,70Z"/><path class="cls-1" d="M114,10.11a8.11,8.11,0,0,1-.86-.45C112,8.78,110.76,7.9,109.58,7c-.75-.57-.79-.94-.23-1.72.86-1.18,1.73-2.36,2.61-3.52.59-.78,1-.83,1.8-.23,1.15.83,2.3,1.68,3.44,2.54.82.62.88,1,.3,1.78-.86,1.19-1.72,2.36-2.61,3.52A6.27,6.27,0,0,1,114,10.11Zm-.94-6.73L111.24,5.9l2.52,1.84,1.85-2.5Z"/><path class="cls-1" d="M184.61,71.63a5.44,5.44,0,0,1-.39.77c-.9,1.23-1.8,2.46-2.72,3.68-.53.69-.94.76-1.65.25Q178,75,176.17,73.6a1,1,0,0,1-.24-1.58c.91-1.26,1.83-2.52,2.78-3.75a.93.93,0,0,1,1.51-.23c1.26.91,2.52,1.83,3.75,2.78A4.4,4.4,0,0,1,184.61,71.63ZM180.4,74.4l1.86-2.51L179.75,70l-1.87,2.52Z"/><path class="cls-1" d="M87.85,182a3.09,3.09,0,0,1-.56.72q-2,1.32-4.13,2.57a.91.91,0,0,1-1.42-.35q-1.29-2-2.51-4a1,1,0,0,1,.36-1.49c1.31-.84,2.64-1.66,4-2.46.68-.4,1.09-.33,1.5.3.86,1.34,1.68,2.7,2.51,4.05A4.2,4.2,0,0,1,87.85,182ZM83.9,179l-2.66,1.65,1.66,2.66c.93-.59,1.75-1.1,2.65-1.65Z"/><path class="cls-1" d="M61.44,113l.41.08c1.41.36,2.83.72,4.24,1.1.9.24,1.11.58.89,1.48-.35,1.45-.71,2.9-1.1,4.34-.24.85-.57,1.06-1.43.85-1.48-.35-3-.72-4.43-1.12-.79-.22-1-.58-.83-1.37.36-1.51.75-3,1.15-4.52A1,1,0,0,1,61.44,113Zm2.78,5.86.77-3-3-.77a25.31,25.31,0,0,0-.68,3Z"/><path class="cls-1" d="M21.19,48.73a2.8,2.8,0,0,1-.58.75q-2,1.31-4,2.52a1,1,0,0,1-1.5-.34c-.86-1.33-1.69-2.68-2.51-4a.89.89,0,0,1,.32-1.41q2-1.32,4.14-2.57a.93.93,0,0,1,1.41.38c.85,1.34,1.68,2.7,2.51,4.05A3.88,3.88,0,0,1,21.19,48.73Zm-3.93-3L14.6,47.34,16.25,50l2.65-1.66Z"/><path class="cls-1" d="M17.67,110a2.87,2.87,0,0,1,.71.57q1.32,2,2.57,4.13a.92.92,0,0,1-.36,1.42q-2,1.28-4.06,2.51a.9.9,0,0,1-1.42-.3q-1.32-2.06-2.56-4.14a.89.89,0,0,1,.36-1.4c1.34-.87,2.69-1.69,4.05-2.52A3.94,3.94,0,0,1,17.67,110Zm-1.42,6.6L18.91,115l-1.66-2.66L14.6,114Z"/><path class="cls-1" d="M87.85,48.75a2.71,2.71,0,0,1-.57.72c-1.36.88-2.73,1.74-4.13,2.57a.92.92,0,0,1-1.41-.36q-1.29-2-2.52-4a1,1,0,0,1,.37-1.48c1.31-.84,2.64-1.66,4-2.46a1,1,0,0,1,1.5.31c.86,1.33,1.69,2.69,2.52,4A5.18,5.18,0,0,1,87.85,48.75Zm-6.61-1.41L82.9,50l2.65-1.65L83.9,45.69Z"/><path class="cls-1" d="M133.73,182l-.11.42c-.35,1.38-.69,2.77-1.05,4.15-.27,1-.59,1.22-1.61,1-1.39-.34-2.77-.69-4.15-1.05-1-.25-1.17-.59-.94-1.55.35-1.42.7-2.83,1.08-4.24.23-.91.59-1.12,1.49-.9,1.45.35,2.9.71,4.34,1.09C133.47,181,133.74,181.36,133.73,182Zm-2.09.56-3-.77c-.27,1-.51,2-.77,3l3,.76Z"/><path class="cls-1" d="M67.08,48.6c0,.1,0,.23-.07.35-.39,1.51-.75,3-1.17,4.52-.2.74-.55,1-1.3.8s-1.32-.34-2-.51c-.85-.21-1.7-.41-2.54-.65s-1-.58-.83-1.37c.36-1.51.75-3,1.16-4.52.19-.73.56-.95,1.31-.78,1.54.37,3.08.78,4.62,1.17A1,1,0,0,1,67.08,48.6Zm-2.85,3.64.76-3-3-.76-.76,3Z"/><path class="cls-1" d="M199.94,181a10.32,10.32,0,0,1-.2,3.49c-.21.75-.37,1.52-.59,2.27s-.6,1-1.39.8c-1.48-.36-3-.73-4.44-1.13-.79-.21-1-.58-.83-1.37.36-1.52.75-3,1.16-4.54.19-.71.57-1,1.21-.81C196.53,180.1,198.19,180.54,199.94,181Zm-5.45,3.77,3,.78.76-3-3-.76Z"/><path class="cls-1" d="M199.94,114.35a10.73,10.73,0,0,1-.22,3.61c-.21.72-.36,1.45-.57,2.17s-.57.94-1.22.79c-1.59-.37-3.16-.77-4.73-1.2a.89.89,0,0,1-.72-1.25c.36-1.55.76-3.1,1.18-4.63.19-.7.55-.93,1.23-.77C196.56,113.46,198.22,113.91,199.94,114.35Zm-1.64,1.49a27.23,27.23,0,0,0-3.06-.66l-.73,2.94,3,.76Z"/><path class="cls-1" d="M199.91,47.69a21.36,21.36,0,0,1,0,2.78,24.67,24.67,0,0,1-.75,3,.94.94,0,0,1-1.33.77c-1.55-.37-3.09-.76-4.62-1.18a.91.91,0,0,1-.71-1.27c.37-1.55.76-3.1,1.18-4.63.18-.66.53-.91,1.15-.77C196.51,46.81,198.2,47.25,199.91,47.69Zm-5.41,3.77a20.66,20.66,0,0,0,3,.71c.23-.86.43-1.64.63-2.42a5.11,5.11,0,0,0,.06-.55l-3-.74Z"/><path class="cls-1" d="M156.45,199.93h-1.69a3,3,0,0,1,2.5-3.32c.35-.05.72,0,1.07,0a1.33,1.33,0,0,0,1.41-1.09,1.31,1.31,0,0,0-1-1.53c-.28-.09-.58-.12-.85-.23a3.19,3.19,0,0,1,1-6.15,2.53,2.53,0,0,1,.77.08.84.84,0,0,1,.62.89.86.86,0,0,1-.69.84c-.21.06-.45,0-.67.06a1.32,1.32,0,0,0-1.16,1.15,1.28,1.28,0,0,0,.93,1.42c.21.07.45.09.66.15a3.2,3.2,0,0,1-.78,6.28h-.2C157.09,198.44,156.82,198.64,156.45,199.93Z"/><path class="cls-1" d="M23.12,200H21.51a2.94,2.94,0,0,1,2.41-3.33,5.26,5.26,0,0,1,1-.05c.91,0,1.46-.4,1.58-1.13s-.35-1.3-1.28-1.54a4.05,4.05,0,0,1-.75-.23,3.2,3.2,0,0,1,1.08-6.1,2.55,2.55,0,0,1,.78.06.87.87,0,0,1,.66,1,.84.84,0,0,1-.71.81,5.63,5.63,0,0,1-.59.05,1.34,1.34,0,0,0-1.22,1.19,1.33,1.33,0,0,0,1,1.39c.15,0,.32.07.47.11a3.2,3.2,0,0,1-.76,6.31C23.76,198.46,23.57,198.59,23.12,200Z"/><path class="cls-1" d="M89.77,200H88.18a2.91,2.91,0,0,1,2.47-3.34,9.48,9.48,0,0,1,1.07,0,1.33,1.33,0,0,0,.32-2.63c-.19-.05-.39-.06-.57-.12a3.2,3.2,0,0,1,.68-6.25,2.57,2.57,0,0,1,.68,0,.88.88,0,0,1,.78.95.9.9,0,0,1-.79.85c-.19,0-.4,0-.59,0a1.32,1.32,0,0,0-1.14,1.27,1.29,1.29,0,0,0,1,1.3c.22.08.45.1.66.16A3.22,3.22,0,0,1,95,195.61a3.18,3.18,0,0,1-3.09,2.83h-.1C90.4,198.46,90.25,198.57,89.77,200Z"/><path class="cls-1" d="M70.07,166.57a3.49,3.49,0,1,1-3.44-3.52A3.52,3.52,0,0,1,70.07,166.57ZM66.62,165a1.59,1.59,0,1,0,1.54,1.64A1.57,1.57,0,0,0,66.62,165Z"/><path class="cls-1" d="M83.09,60a5.57,5.57,0,0,1-10.92,1.53,3.5,3.5,0,0,1-.15-1,.87.87,0,0,1,.73-.9.93.93,0,0,1,1.06.64c.07.22.1.45.16.67A3.69,3.69,0,0,0,81.21,60c0-.23,0-.46,0-.68a.92.92,0,0,1,.86-.9.94.94,0,0,1,1,.8A6.73,6.73,0,0,1,83.09,60Z"/><path class="cls-1" d="M101.34,89.49a3.85,3.85,0,0,1,0-.68.83.83,0,0,1,.78-.74.81.81,0,0,1,.94.53,3.68,3.68,0,0,1,.17,1.15,5.57,5.57,0,0,1-11,1.28,1.19,1.19,0,0,1,.19-1.19.92.92,0,0,1,1.43.15,2.63,2.63,0,0,1,.23.63,3.68,3.68,0,0,0,7.24-1.13Z"/><path class="cls-1" d="M168,89.56a3.94,3.94,0,0,1,0-.55,1,1,0,0,1,.81-1,.91.91,0,0,1,1,.8,6.08,6.08,0,0,1,0,1.65,5.56,5.56,0,0,1-10.78,1,4,4,0,0,1-.22-1,.89.89,0,0,1,.66-1,.91.91,0,0,1,1.12.53,3.68,3.68,0,0,1,.15.57A3.68,3.68,0,0,0,168,89.56Z"/><path class="cls-1" d="M149.74,59.89a5.57,5.57,0,0,1-11,1.21,1.9,1.9,0,0,1-.05-.67.85.85,0,0,1,.76-.78.84.84,0,0,1,1,.49,3.79,3.79,0,0,1,.21.75,3.7,3.7,0,0,0,4.07,2.74A3.65,3.65,0,0,0,147.83,60c0-.22,0-.45,0-.68a.87.87,0,0,1,.8-.84.9.9,0,0,1,1,.72A3.7,3.7,0,0,1,149.74,59.89Z"/><path class="cls-1" d="M16.43,126.53a5.56,5.56,0,0,1-11,1.24,2.32,2.32,0,0,1-.08-.58.89.89,0,0,1,.76-.88.88.88,0,0,1,1,.55c.11.27.14.57.23.85a3.68,3.68,0,0,0,7.2-1c0-.23,0-.46,0-.68a.93.93,0,0,1,1.84-.07A4.6,4.6,0,0,1,16.43,126.53Z"/><path class="cls-1" d="M161.07,82a3.49,3.49,0,1,1-3.46-3.48A3.51,3.51,0,0,1,161.07,82Zm-1.9,0a1.54,1.54,0,0,0-1.63-1.55A1.56,1.56,0,0,0,156,82a1.59,1.59,0,1,0,3.17,0Z"/><path class="cls-1" d="M170,62.68a3.49,3.49,0,1,1-3.45,3.5A3.51,3.51,0,0,1,170,62.68Zm0,1.9a1.59,1.59,0,0,0,0,3.17,1.57,1.57,0,0,0,1.61-1.58A1.55,1.55,0,0,0,170,64.58Z"/><path class="cls-1" d="M144.13,198.82a5.56,5.56,0,0,1-5.43-4.45,2.28,2.28,0,0,1,0-.58.94.94,0,0,1,.79-.86.86.86,0,0,1,.95.52,3.82,3.82,0,0,1,.19.66,3.71,3.71,0,0,0,3.91,2.84,3.67,3.67,0,0,0,3.34-3.67c0-.23,0-.46,0-.69a.94.94,0,0,1,.82-.83.92.92,0,0,1,1,.66,2.79,2.79,0,0,1,.11.76A5.55,5.55,0,0,1,144.13,198.82Z"/><path class="cls-1" d="M22.07,100.54a3.49,3.49,0,1,1,7,.06,3.49,3.49,0,0,1-7-.06ZM25.51,99a1.58,1.58,0,0,0,0,3.16,1.57,1.57,0,0,0,1.59-1.61A1.56,1.56,0,0,0,25.51,99Z"/><path class="cls-1" d="M191.16,195.27a3.49,3.49,0,1,1,3.5,3.45A3.5,3.5,0,0,1,191.16,195.27Zm5.08-.08a1.58,1.58,0,0,0-1.66-1.54,1.59,1.59,0,0,0,.09,3.17A1.59,1.59,0,0,0,196.24,195.19Z"/><path class="cls-1" d="M168,22.87a3.75,3.75,0,0,1,0-.58.89.89,0,0,1,.79-.86.85.85,0,0,1,1,.68,6,6,0,0,1,.06,1.75,5.57,5.57,0,0,1-10.82.92,3.66,3.66,0,0,1-.18-.86.92.92,0,0,1,1.77-.44,3.56,3.56,0,0,1,.15.56,3.72,3.72,0,0,0,4.2,2.68A3.68,3.68,0,0,0,168,22.87Z"/><path class="cls-1" d="M64.83,62a3.48,3.48,0,0,1-7,0,3.48,3.48,0,1,1,7,0Zm-3.5-1.62A1.62,1.62,0,0,0,59.76,62a1.57,1.57,0,0,0,1.66,1.53,1.54,1.54,0,0,0,1.51-1.57A1.58,1.58,0,0,0,61.33,60.34Z"/><path class="cls-1" d="M92.19,170.66a3.48,3.48,0,0,1-3.48-3.45,3.49,3.49,0,1,1,7,0A3.47,3.47,0,0,1,92.19,170.66Zm0-5.07a1.64,1.64,0,0,0-1.57,1.65,1.59,1.59,0,0,0,1.67,1.53,1.56,1.56,0,0,0,1.51-1.58A1.59,1.59,0,0,0,92.17,165.59Z"/><path class="cls-1" d="M40.24,132.77a3.48,3.48,0,1,1-7,0,3.48,3.48,0,0,1,7,0Zm-3.47-1.56a1.59,1.59,0,1,0,0,3.18,1.57,1.57,0,0,0,1.54-1.55A1.59,1.59,0,0,0,36.77,131.21Z"/><path class="cls-1" d="M91,152.11a3.48,3.48,0,1,1,0-7,3.48,3.48,0,0,1,0,7Zm1.58-3.44a1.59,1.59,0,1,0-3.18,0,1.57,1.57,0,0,0,1.53,1.56A1.59,1.59,0,0,0,92.54,148.67Z"/><path class="cls-1" d="M169.92,156.4a5.63,5.63,0,0,1-4.58,5.45,5.57,5.57,0,0,1-6.31-3.73,3.9,3.9,0,0,1-.18-.75.93.93,0,1,1,1.8-.46c.08.21.11.44.19.65a3.67,3.67,0,0,0,7.15-1.25,6.66,6.66,0,0,1,0-.77.93.93,0,0,1,.82-.84.91.91,0,0,1,1,.64A7.53,7.53,0,0,1,169.92,156.4Z"/><path class="cls-1" d="M16.43,60a5.56,5.56,0,0,1-11,1.16,2.24,2.24,0,0,1-.08-.57.92.92,0,0,1,.76-.89.91.91,0,0,1,1,.56,5.28,5.28,0,0,1,.16.66,3.69,3.69,0,0,0,7.27-.95,3.75,3.75,0,0,1,0-.67.89.89,0,0,1,.87-.78.91.91,0,0,1,.93.71A4.45,4.45,0,0,1,16.43,60Z"/><path class="cls-1" d="M25.54,170.66a3.47,3.47,0,0,1-3.47-3.46,3.49,3.49,0,1,1,3.47,3.46Zm0-1.89a1.57,1.57,0,0,0,1.63-1.56,1.59,1.59,0,0,0-3.17-.09A1.56,1.56,0,0,0,25.51,168.77Z"/><path class="cls-1" d="M40.24,66.21a3.48,3.48,0,1,1-3.4-3.53A3.48,3.48,0,0,1,40.24,66.21ZM36.8,64.58a1.59,1.59,0,0,0-1.63,1.57,1.6,1.6,0,0,0,1.6,1.6,1.59,1.59,0,0,0,0-3.17Z"/><path class="cls-1" d="M170.11,136.28a3.48,3.48,0,1,1,3.43-3.52A3.49,3.49,0,0,1,170.11,136.28Zm-.08-1.9a1.55,1.55,0,0,0,1.61-1.57,1.58,1.58,0,0,0-3.16-.06A1.55,1.55,0,0,0,170,134.38Z"/><path class="cls-1" d="M161.08,148.67a3.49,3.49,0,1,1-7-.11,3.49,3.49,0,0,1,7,.11Zm-1.91-.07a1.59,1.59,0,0,0-1.64-1.56,1.62,1.62,0,0,0-1.53,1.68,1.58,1.58,0,0,0,1.6,1.5A1.55,1.55,0,0,0,159.17,148.6Z"/><path class="cls-1" d="M95.68,100.5a3.49,3.49,0,1,1-3.5-3.44A3.51,3.51,0,0,1,95.68,100.5Zm-5.08.07a1.6,1.6,0,0,0,1.64,1.56,1.57,1.57,0,0,0,1.54-1.66A1.55,1.55,0,0,0,92.2,99,1.58,1.58,0,0,0,90.6,100.57Z"/><path class="cls-1" d="M194.6,65.41a3.48,3.48,0,0,1,0-7,3.48,3.48,0,1,1,0,7Zm1.64-3.52a1.61,1.61,0,0,0-1.66-1.55A1.59,1.59,0,0,0,193.07,62a1.54,1.54,0,0,0,1.6,1.48A1.57,1.57,0,0,0,196.24,61.89Z"/><path class="cls-1" d="M61.32,191.75a3.49,3.49,0,1,1-3.45,3.49A3.48,3.48,0,0,1,61.32,191.75Zm1.61,3.46a1.55,1.55,0,0,0-1.63-1.56,1.59,1.59,0,0,0,.05,3.17A1.57,1.57,0,0,0,62.93,195.21Z"/><path class="cls-1" d="M90.93,11.88a3.47,3.47,0,1,1,0,6.94,3.47,3.47,0,0,1,0-6.94ZM91,17a1.6,1.6,0,0,0,0-3.2A1.6,1.6,0,1,0,91,17Z"/><path class="cls-1" d="M101.32,22.87a5.61,5.61,0,0,1,0-.58.87.87,0,0,1,.77-.86.89.89,0,0,1,1,.69,2.47,2.47,0,0,1,.11.67,5.57,5.57,0,0,1-11,1.52,1.9,1.9,0,0,1,0-.58.87.87,0,0,1,.74-.8.86.86,0,0,1,1,.46,2.72,2.72,0,0,1,.18.55,3.68,3.68,0,0,0,4.12,2.79A3.64,3.64,0,0,0,101.32,22.87Z"/><path class="cls-1" d="M106.88,132.79a3.47,3.47,0,1,1-3.46-3.48A3.47,3.47,0,0,1,106.88,132.79Zm-3.48,1.59a1.59,1.59,0,0,0,1.62-1.59,1.63,1.63,0,0,0-1.64-1.58,1.6,1.6,0,0,0-1.56,1.56A1.58,1.58,0,0,0,103.4,134.38Z"/><path class="cls-1" d="M87.47,82a3.48,3.48,0,0,1,3.46-3.47A3.49,3.49,0,1,1,87.47,82Zm5.07,0a1.58,1.58,0,0,0-1.62-1.57A1.56,1.56,0,0,0,89.36,82a1.57,1.57,0,0,0,1.57,1.63A1.59,1.59,0,0,0,92.54,82Z"/><path class="cls-1" d="M95.68,33.89a3.49,3.49,0,1,1-3.46-3.46A3.47,3.47,0,0,1,95.68,33.89Zm-1.9.09a1.6,1.6,0,0,0-1.53-1.68A1.6,1.6,0,1,0,93.78,34Z"/><path class="cls-1" d="M106.88,66.17a3.47,3.47,0,1,1-3.43-3.49A3.48,3.48,0,0,1,106.88,66.17Zm-1.86,0a1.6,1.6,0,0,0-1.62-1.6,1.59,1.59,0,0,0,0,3.17A1.62,1.62,0,0,0,105,66.18Z"/><path class="cls-1" d="M61.38,125.12a3.47,3.47,0,1,1-3.52,3.43A3.45,3.45,0,0,1,61.38,125.12Zm0,5.07a1.61,1.61,0,0,0,0-3.21,1.61,1.61,0,1,0,0,3.21Z"/><path class="cls-1" d="M131.47,61.93A3.47,3.47,0,1,1,128,58.45,3.45,3.45,0,0,1,131.47,61.93Zm-1.86,0a1.64,1.64,0,0,0-1.63-1.6A1.62,1.62,0,0,0,126.4,62,1.6,1.6,0,0,0,128,63.52,1.62,1.62,0,0,0,129.61,61.94Z"/><path class="cls-1" d="M101.33,156.15a5.61,5.61,0,0,1,0-.58.93.93,0,0,1,.78-.87.88.88,0,0,1,1,.62,3.44,3.44,0,0,1,.15,1.06,5.58,5.58,0,0,1-4.82,5.51,5.52,5.52,0,0,1-6.15-4.21,1.31,1.31,0,0,1,0-.85,1.38,1.38,0,0,1,.8-.59c.24,0,.58.2.81.39s.17.41.24.63a3.71,3.71,0,0,0,4,2.78A3.67,3.67,0,0,0,101.33,156.15Z"/><path class="cls-1" d="M34.72,23.06c0-.39,0-.59,0-.78a.88.88,0,0,1,.79-.85.82.82,0,0,1,1,.69,7.5,7.5,0,0,1,0,2.22,5.55,5.55,0,0,1-10.74.33,3.53,3.53,0,0,1-.15-.85.88.88,0,0,1,.74-.9.92.92,0,0,1,1,.57c.09.21.13.44.2.65a3.68,3.68,0,0,0,7.21-1.08Z"/><path class="cls-1" d="M66.58,36.72a3.48,3.48,0,1,1,3.49-3.44A3.49,3.49,0,0,1,66.58,36.72Zm1.58-3.46a1.58,1.58,0,1,0-3.16,0,1.58,1.58,0,0,0,3.16,0Z"/><path class="cls-1" d="M27.76,148.61a3.47,3.47,0,1,1-6.93.06,3.47,3.47,0,1,1,6.93-.06Zm-3.47,1.61a1.6,1.6,0,0,0,1.61-1.59,1.6,1.6,0,0,0-3.2,0A1.59,1.59,0,0,0,24.29,150.22Z"/><path class="cls-1" d="M25.56,30.43a3.47,3.47,0,1,1-3.49,3.43A3.48,3.48,0,0,1,25.56,30.43Zm1.58,3.42a1.61,1.61,0,0,0-1.66-1.55,1.6,1.6,0,0,0,.09,3.2A1.62,1.62,0,0,0,27.14,33.85Z"/><path class="cls-1" d="M24.3,78.51a3.49,3.49,0,0,1-.05,7,3.49,3.49,0,0,1,.05-7ZM25.9,82a1.61,1.61,0,0,0-3.21.08,1.62,1.62,0,0,0,1.59,1.52A1.6,1.6,0,0,0,25.9,82Z"/><path class="cls-1" d="M136.7,33.2a3.48,3.48,0,1,1-6.95,0,3.48,3.48,0,0,1,6.95,0Zm-1.88.1a1.6,1.6,0,0,0-1.57-1.65,1.63,1.63,0,0,0-1.62,1.59,1.6,1.6,0,0,0,3.19.06Z"/><path class="cls-1" d="M157.57,11.88a3.47,3.47,0,1,1-3.47,3.46A3.47,3.47,0,0,1,157.57,11.88Zm0,5.07a1.6,1.6,0,0,0,.11-3.2,1.6,1.6,0,1,0-.11,3.2Z"/><path class="cls-1" d="M136.7,166.55a3.47,3.47,0,1,1-3.44-3.5A3.5,3.5,0,0,1,136.7,166.55ZM133.25,165a1.59,1.59,0,1,0,1.57,1.63A1.59,1.59,0,0,0,133.25,165Z"/><path class="cls-1" d="M162.31,167.17a3.47,3.47,0,1,1-3.49-3.46A3.44,3.44,0,0,1,162.31,167.17Zm-3.5-1.58a1.64,1.64,0,0,0-1.57,1.66,1.61,1.61,0,0,0,3.21-.07A1.64,1.64,0,0,0,158.81,165.59Z"/><path class="cls-1" d="M194.62,125.12a3.46,3.46,0,1,1-3.45,3.49A3.48,3.48,0,0,1,194.62,125.12Zm1.61,3.5a1.58,1.58,0,1,0-1.64,1.56A1.59,1.59,0,0,0,196.23,128.62Z"/><path class="cls-1" d="M31,95.29a5.52,5.52,0,0,1-5.31-4,3.09,3.09,0,0,1-.14-.85.83.83,0,0,1,.73-.89.89.89,0,0,1,1,.55c.09.21.12.44.19.66a3.66,3.66,0,0,0,4.18,2.55,3.71,3.71,0,0,0,3-3.75c0-.22,0-.45,0-.67a.9.9,0,0,1,.78-.87.84.84,0,0,1,1,.7,7.76,7.76,0,0,1-.06,2.31A5.47,5.47,0,0,1,31,95.29Z"/><path class="cls-1" d="M131.47,195.21a3.47,3.47,0,1,1-3.47-3.46A3.48,3.48,0,0,1,131.47,195.21Zm-3.42,1.61a1.61,1.61,0,0,0,1.55-1.66,1.6,1.6,0,0,0-3.2.1A1.61,1.61,0,0,0,128.05,196.82Z"/><path class="cls-1" d="M66.63,103.36a3.47,3.47,0,1,1,3.44-3.49A3.48,3.48,0,0,1,66.63,103.36Zm-.06-1.86a1.6,1.6,0,0,0,.07-3.2,1.6,1.6,0,1,0-.07,3.2Z"/><path class="cls-1" d="M34.72,156.19a3.37,3.37,0,0,1,0-.52.93.93,0,0,1,.88-1,.89.89,0,0,1,.94.82,8.24,8.24,0,0,1-.09,2.22,5.44,5.44,0,0,1-5.31,4.2,5.53,5.53,0,0,1-5.41-4,3.09,3.09,0,0,1-.14-.86.9.9,0,0,1,.75-.89.92.92,0,0,1,1,.58c.08.18.11.38.17.56a3.69,3.69,0,0,0,7.24-1.16Z"/><path class="cls-1" d="M155.38,100.58a3.47,3.47,0,1,1,3.48,3.46A3.47,3.47,0,0,1,155.38,100.58Zm5.07,0a1.61,1.61,0,1,0-1.65,1.56A1.61,1.61,0,0,0,160.45,100.57Z"/><path class="cls-1" d="M77.56,198.82a5.52,5.52,0,0,1-5.41-4.09,3.44,3.44,0,0,1-.12-.95.85.85,0,0,1,.79-.85.88.88,0,0,1,.94.54,4.61,4.61,0,0,1,.21.75,3.68,3.68,0,0,0,7.24-1,5.14,5.14,0,0,1,0-.68.9.9,0,0,1,.82-.82.88.88,0,0,1,1,.67,3.48,3.48,0,0,1,.1,1A5.52,5.52,0,0,1,77.56,198.82Z"/><path class="cls-1" d="M77.57,132.19a5.58,5.58,0,0,1-5.42-4.09,3.9,3.9,0,0,1-.13-1,.81.81,0,0,1,.69-.82.89.89,0,0,1,1.05.51c.1.23.13.49.21.74a3.68,3.68,0,0,0,7.24-.95,5.81,5.81,0,0,1,0-.59.87.87,0,0,1,.84-.9.83.83,0,0,1,1,.76,7.08,7.08,0,0,1-.1,2.11A5.52,5.52,0,0,1,77.57,132.19Z"/><path class="cls-1" d="M133.27,96.43a3.47,3.47,0,1,1-3.51,3.43A3.44,3.44,0,0,1,133.27,96.43Zm1.55,3.46a1.59,1.59,0,0,0-1.62-1.59,1.62,1.62,0,0,0-1.57,1.55,1.64,1.64,0,0,0,1.58,1.65A1.62,1.62,0,0,0,134.82,99.89Z"/><path class="cls-1" d="M24.29,18.82a3.47,3.47,0,1,1,3.48-3.46A3.45,3.45,0,0,1,24.29,18.82Zm0-5.07a1.6,1.6,0,1,0,1.58,1.64A1.64,1.64,0,0,0,24.32,13.75Z"/><path class="cls-1" d="M162.31,33.88a3.47,3.47,0,1,1-3.48-3.45A3.42,3.42,0,0,1,162.31,33.88ZM158.8,35.5a1.6,1.6,0,1,0-1.56-1.67A1.64,1.64,0,0,0,158.8,35.5Z"/><path class="cls-1" d="M7.81,196c.16,0,.4-.17.47-.1a5,5,0,0,1,.66.75,2.11,2.11,0,0,1,.63.06,4.19,4.19,0,0,0,2.3.11,3,3,0,0,1,.66-.07c.73,0,.67,0,1-.73.16-.34.59-.54.9-.8a2.87,2.87,0,0,0-.07.58c0,.07.17.13.26.19-.18.7-.18.7-.91.36.27.41.57.56.87.39s.45-.48,0-.73c.33-.56.32-.6-.2-.76-.06-.11-.19-.23-.18-.33.09-.8.19-1.6.31-2.4a.91.91,0,0,1,.86-.79.88.88,0,0,1,.94.69,4.37,4.37,0,0,1-.23,2.58c-.07.17-.39.23-.68.37.42.64,0,1.1-.4,1.55a5.55,5.55,0,0,1-7.17,1c-.77-.49-1.43-1.06-1.26-2.08.09-.5-.18-.63-.52-.77a.42.42,0,0,1-.15.11,1.51,1.51,0,0,1-.5-1.69,1.4,1.4,0,0,1,.79-.58.73.73,0,0,1,.9.57c.15.8.63,1.55.39,2.41l.31.08c0,.18-.1.5-.16.51a3.73,3.73,0,0,1-.8-.1c.33.38.73.52,1,.3S8.14,196.24,7.81,196Z"/><path class="cls-1" d="M1.94,18.25a6.45,6.45,0,0,1,2.13-4.48,2.55,2.55,0,0,1,.61-.47.92.92,0,0,1,1.17,1.36,5.55,5.55,0,0,1-.49.48,4.84,4.84,0,0,0-.77,6.14c.1.17.23.32.31.49a.92.92,0,0,1-1.48,1.09A3.07,3.07,0,0,1,3,22.32,7.19,7.19,0,0,1,1.94,18.25Z"/><path class="cls-1" d="M71.74,13.07c.29.19.67.31.78.55a1.71,1.71,0,0,1,0,1c-.05.18-.3.32-.46.48a4.83,4.83,0,0,0-.8,6.21c.1.17.23.32.31.49a.92.92,0,0,1-1.52,1,3.19,3.19,0,0,1-.35-.47,6.74,6.74,0,0,1,1.12-8.68A10,10,0,0,1,71.74,13.07Z"/><path class="cls-1" d="M135.6,123.74a1.9,1.9,0,0,1-.45-.06.87.87,0,0,1-.68-.85.91.91,0,0,1,.69-.94,5.05,5.05,0,0,1,.68-.06,4.86,4.86,0,0,0,4.37-4.38,3.76,3.76,0,0,1,.11-.76.86.86,0,0,1,.89-.62.89.89,0,0,1,.86.68,2.14,2.14,0,0,1,0,.67A6.83,6.83,0,0,1,135.6,123.74Z"/><path class="cls-1" d="M50,127.5a1.88,1.88,0,0,1,0-.51.91.91,0,0,1,1-.68.88.88,0,0,1,.84.69,3.63,3.63,0,0,1,.06.67,4.81,4.81,0,0,0,4,4.62c.26.05.52.05.77.12a.91.91,0,0,1,.72.91.89.89,0,0,1-.86.89,4.74,4.74,0,0,1-1.06-.08A6.82,6.82,0,0,1,50,127.5Z"/><path class="cls-1" d="M123,67.58a6.63,6.63,0,0,1-6.27-7.06.89.89,0,0,1,1-.87,1,1,0,0,1,.86.9c0,.39,0,.78.09,1.16a4.82,4.82,0,0,0,4,3.94,5.4,5.4,0,0,1,.58.1.9.9,0,0,1,.78,1,.91.91,0,0,1-1,.79Z"/><path class="cls-1" d="M2,151.51A6.46,6.46,0,0,1,4,147.09a3.48,3.48,0,0,1,.61-.48.86.86,0,0,1,1.14.15.91.91,0,0,1,0,1.24c-.15.17-.34.31-.5.47a4.85,4.85,0,0,0-.76,6.07,4.94,4.94,0,0,1,.36.57.9.9,0,0,1-.23,1.14,1,1,0,0,1-1.24-.08,3.1,3.1,0,0,1-.47-.61A7.09,7.09,0,0,1,2,151.51Z"/><path class="cls-1" d="M30.34,112a6.82,6.82,0,0,1,5.85-6.49,4.9,4.9,0,0,1,.77,0,1,1,0,0,1,1.06.91c0,.48-.33.83-.93.94a11.69,11.69,0,0,0-1.34.21,4.8,4.8,0,0,0-3.5,4.13c0,.16,0,.32,0,.48-.09.65-.45,1-1,1s-.87-.42-.89-1.08C30.33,111.93,30.34,111.86,30.34,112Z"/><path class="cls-1" d="M50,61c0-.13,0-.26,0-.39a1,1,0,0,1,.9-1c.54,0,.91.34,1,1,0,.42,0,.85.1,1.26a4.84,4.84,0,0,0,3.9,3.74c.22,0,.45.06.67.12a.94.94,0,0,1,.82,1,.93.93,0,0,1-1.05.79,6.44,6.44,0,0,1-1.44-.22A6.74,6.74,0,0,1,50,61Z"/><path class="cls-1" d="M135.62,190.37c-.73,0-1.13-.32-1.15-.9s.31-.87,1-1a8.38,8.38,0,0,0,1.43-.25,4.72,4.72,0,0,0,3.32-4.15,4.91,4.91,0,0,1,.08-.67.88.88,0,0,1,.93-.69.91.91,0,0,1,.88.77,1.22,1.22,0,0,1,0,.38A6.75,6.75,0,0,1,135.62,190.37Z"/><path class="cls-1" d="M1.94,85a6.56,6.56,0,0,1,2.13-4.59,3.42,3.42,0,0,1,.61-.47.93.93,0,0,1,1.15.21.89.89,0,0,1,0,1.16,4.35,4.35,0,0,1-.48.48,4.83,4.83,0,0,0-.77,6.14,5.19,5.19,0,0,1,.31.5.89.89,0,0,1-.25,1.2.9.9,0,0,1-1.24-.13A3.59,3.59,0,0,1,3,89,7.09,7.09,0,0,1,1.94,85Z"/><path class="cls-1" d="M170.14,172.05c.71,0,1.12.34,1.14.92s-.34.9-1.07,1c-2.81.31-4.33,1.83-4.68,4.69a1.21,1.21,0,0,1,0,.19.94.94,0,0,1-1,.88.89.89,0,0,1-.89-1,6.71,6.71,0,0,1,6.49-6.7Z"/><path class="cls-1" d="M30.34,178.61a6.82,6.82,0,0,1,6.37-6.55,1.41,1.41,0,0,1,.83.17A1.09,1.09,0,0,1,38,173a1.6,1.6,0,0,1-.56.82c-.14.13-.43.1-.66.12a4.85,4.85,0,0,0-4.52,4.44c0,.16,0,.32,0,.48a.92.92,0,0,1-1.84,0A1.83,1.83,0,0,1,30.34,178.61Z"/><path class="cls-1" d="M68.56,152.25A7,7,0,0,1,70.78,147a3.07,3.07,0,0,1,.54-.41.87.87,0,0,1,1.14.2.93.93,0,0,1,0,1.16,5.55,5.55,0,0,1-.49.48,4.82,4.82,0,0,0-.78,6.13c.08.14.19.27.26.41a.93.93,0,0,1-.19,1.3A.92.92,0,0,1,70,156a11.78,11.78,0,0,1-1.08-2.16A8.36,8.36,0,0,1,68.56,152.25Z"/><path class="cls-1" d="M8.81,117.39a6.73,6.73,0,0,1-6.45,6.35c-.7,0-1.15-.32-1.19-.88s.36-.94,1.14-1a4.81,4.81,0,0,0,4.4-3.4,7.33,7.33,0,0,0,.23-1.24c.12-.82.45-1.19,1-1.13S8.83,116.57,8.81,117.39Z"/><path class="cls-1" d="M69.1,57.05a2.68,2.68,0,0,1-.49,0,.9.9,0,0,1-.81-.83.92.92,0,0,1,.78-1c.22,0,.45,0,.68-.07a4.88,4.88,0,0,0,4.33-4.54,2.56,2.56,0,0,1,0-.39.94.94,0,0,1,.92-.83.92.92,0,0,1,.92.94,5.41,5.41,0,0,1-.08,1.06A6.68,6.68,0,0,1,69.1,57.05Z"/><path class="cls-1" d="M163.64,111.81a6.77,6.77,0,0,1,6.34-6.38,2.17,2.17,0,0,1,.77.09.83.83,0,0,1,.53.85.82.82,0,0,1-.57.83,6,6,0,0,1-1,.15,4.81,4.81,0,0,0-4.2,4.34,5.22,5.22,0,0,1-.05.58.93.93,0,0,1-1.85-.07A2.54,2.54,0,0,1,163.64,111.81Z"/><path class="cls-1" d="M8.81,183.82a6.8,6.8,0,0,1-6.43,6.56,1.12,1.12,0,0,1-1-.41.89.89,0,0,1,.4-1.37,3.51,3.51,0,0,1,.86-.14,4.82,4.82,0,0,0,4.29-4.15c0-.23,0-.46.08-.68.11-.62.43-.92,1-.9s.86.39.89,1.06C8.82,183.85,8.81,183.92,8.81,183.82Z"/><path class="cls-1" d="M97,45.3a6.76,6.76,0,0,1,6.51-6.52,1,1,0,0,1,1,.55.9.9,0,0,1-.65,1.27c-.35.08-.71.07-1.06.14a4.79,4.79,0,0,0-3.92,4c0,.26,0,.52-.1.77a.93.93,0,0,1-1,.88,1,1,0,0,1-.86-1C97,45.34,97,45.24,97,45.3Z"/><path class="cls-1" d="M163.64,45.17a6.73,6.73,0,0,1,6.4-6.38c.81,0,1.23.28,1.24.89s-.33.9-1.09,1a4.9,4.9,0,0,0-3.61,1.85,4.52,4.52,0,0,0-1,2.48c0,.09,0,.19,0,.29-.09.78-.45,1.21-1,1.18S163.62,45.94,163.64,45.17Z"/><path class="cls-1" d="M183.31,127.58a3,3,0,0,1,0-.52.9.9,0,0,1,1.77,0c0,.22,0,.45,0,.67a4.89,4.89,0,0,0,4.27,4.62,2.86,2.86,0,0,1,.66.13.85.85,0,0,1,.55.94.81.81,0,0,1-.74.78,4.53,4.53,0,0,1-1.16-.07A6.76,6.76,0,0,1,183.31,127.58Z"/><path class="cls-1" d="M68.56,85.65a7.08,7.08,0,0,1,2.17-5.25,3,3,0,0,1,.53-.42.93.93,0,0,1,1.23.19,1,1,0,0,1,0,1.17,2.81,2.81,0,0,1-.35.34A4.84,4.84,0,0,0,71.3,88a2.19,2.19,0,0,1,.26.41.91.91,0,0,1-.29,1.2.84.84,0,0,1-1.21-.18,9.62,9.62,0,0,1-1.11-2A9.72,9.72,0,0,1,68.56,85.65Z"/><path class="cls-1" d="M97,112a6.77,6.77,0,0,1,6.32-6.58,2.19,2.19,0,0,1,.68,0,.86.86,0,0,1,.64.87.82.82,0,0,1-.55.83,3.52,3.52,0,0,1-.86.15,4.8,4.8,0,0,0-4.32,4.21c0,.19,0,.38-.07.57-.1.67-.44,1-1,1S97,112.66,97,112C97,111.91,97,111.85,97,112Z"/><path class="cls-1" d="M69,190.37a1.92,1.92,0,0,1-.39,0,1,1,0,0,1-.78-.88.93.93,0,0,1,.72-.92,3.61,3.61,0,0,1,.67-.09,4.86,4.86,0,0,0,4.39-4.36,5.65,5.65,0,0,1,0-.58.9.9,0,0,1,.95-.79.86.86,0,0,1,.88.86,5,5,0,0,1-.08,1.16A6.75,6.75,0,0,1,69,190.37Z"/><path class="cls-1" d="M183.31,60.92a2.49,2.49,0,0,1,.05-.59.88.88,0,0,1,.85-.68.87.87,0,0,1,.91.73,5,5,0,0,1,0,.67,4.84,4.84,0,0,0,4.26,4.62,4.67,4.67,0,0,1,.67.14.91.91,0,0,1-.17,1.74,3.18,3.18,0,0,1-.87,0A6.76,6.76,0,0,1,183.31,60.92Z"/><path class="cls-1" d="M30.34,45.27a6.76,6.76,0,0,1,6.13-6.46l.29,0c.78,0,1.25.31,1.25.9a1,1,0,0,1-1.11,1,4.71,4.71,0,0,0-3.62,1.83,4.94,4.94,0,0,0-1,2.58c0,.19,0,.39,0,.58a1,1,0,0,1-1,.79.94.94,0,0,1-.87-.79A1.91,1.91,0,0,1,30.34,45.27Z"/><path class="cls-1" d="M2.54,57.06H2.05A.91.91,0,0,1,2,55.24c.31-.06.64-.07,1-.12a4.79,4.79,0,0,0,4-4.11,6.93,6.93,0,0,1,.1-.78.91.91,0,0,1,1.81.15,7.11,7.11,0,0,1-.22,1.72A6.64,6.64,0,0,1,2.54,57.06Z"/><path class="cls-1" d="M138.25,79.83c.86,0,1.3.71,1,1.31a2.51,2.51,0,0,1-.51.57A4.72,4.72,0,0,0,138,88c.48.73.4,1.43-.08,1.7s-1,.1-1.57-.71a6.76,6.76,0,0,1,1.2-8.67A4.51,4.51,0,0,1,138.25,79.83Z"/><path class="cls-1" d="M75.47,117.32a6.76,6.76,0,0,1-6.4,6.4,1.6,1.6,0,0,1-1-.3.88.88,0,0,1,.32-1.49,2.52,2.52,0,0,1,.67-.09,4.88,4.88,0,0,0,4.5-4.38c0-.16,0-.32,0-.48a.93.93,0,1,1,1.86,0Z"/><path class="cls-1" d="M135.66,57.06h-.25a.9.9,0,0,1-.94-.91.89.89,0,0,1,.82-.91c.32-.06.65-.07,1-.13a4.8,4.8,0,0,0,4-4.34,3.8,3.8,0,0,1,.06-.58.94.94,0,0,1,1-.77.91.91,0,0,1,.85.9,6.66,6.66,0,0,1-6.44,6.74Z"/><path class="cls-1" d="M135.25,151.93a6.6,6.6,0,0,1,2.1-4.86,3.26,3.26,0,0,1,.7-.52.82.82,0,0,1,1,.23.83.83,0,0,1,.11,1.07,3.18,3.18,0,0,1-.54.56,4.83,4.83,0,0,0-.76,6.22,3.66,3.66,0,0,1,.31.49.92.92,0,0,1-.26,1.14.89.89,0,0,1-1.23-.11,5.77,5.77,0,0,1-.8-1.21A6.27,6.27,0,0,1,135.25,151.93Z"/><path class="cls-1" d="M97,178.46a6.78,6.78,0,0,1,6.39-6.41,1.17,1.17,0,0,1,1.11.46.92.92,0,0,1-.47,1.36,3,3,0,0,1-.67.09,4.81,4.81,0,0,0-4.44,4.19c0,.22-.05.45-.08.67-.1.6-.45.92-1,.9a.92.92,0,0,1-.88-1A2.81,2.81,0,0,1,97,178.46Z"/><path class="cls-1" d="M135.25,18.84a6.66,6.66,0,0,1,2.11-5.07,3.07,3.07,0,0,1,.61-.48.92.92,0,0,1,1.15.21.91.91,0,0,1,0,1.17,3.87,3.87,0,0,1-.41.4,4.8,4.8,0,0,0-.8,6.29c.08.13.19.26.26.4a1,1,0,0,1-.25,1.23.9.9,0,0,1-1.29-.21,6.09,6.09,0,0,1-1.33-3.09A8,8,0,0,1,135.25,18.84Z"/><path class="cls-1" d="M63.69,106.18c.34.15.59.24.81.36l7,3.94a2.32,2.32,0,0,1,.47.33.91.91,0,0,1,.11,1.16.84.84,0,0,1-1,.36,4.94,4.94,0,0,1-.7-.33l-6.61-3.71a3.15,3.15,0,0,1-.65-.42.8.8,0,0,1-.2-1.05A3.3,3.3,0,0,1,63.69,106.18Z"/><path class="cls-1" d="M113.83,187.12c0,.12-.07.31-.12.5-.62,2.55-1.23,5.1-1.86,7.64-.23.92-.68,1.29-1.28,1.11s-.78-.66-.56-1.54c.62-2.55,1.25-5.09,1.88-7.64a2.09,2.09,0,0,1,.18-.55.89.89,0,0,1,1-.52A1,1,0,0,1,113.83,187.12Z"/><path class="cls-1" d="M150.75,88.39l-.75-.15-7.39-1.72a3.48,3.48,0,0,1-.65-.19.9.9,0,0,1-.52-1,1,1,0,0,1,.93-.72,1.85,1.85,0,0,1,.47.08l7.77,1.8a2.56,2.56,0,0,1,.56.15.91.91,0,0,1,.54,1.12A1,1,0,0,1,150.75,88.39Z"/><path class="cls-1" d="M84,21.72l-.67-.14q-3.65-.82-7.28-1.68a3.57,3.57,0,0,1-.66-.18.91.91,0,0,1-.59-1.08.88.88,0,0,1,.93-.69,3.1,3.1,0,0,1,.67.1l7.47,1.72a3.56,3.56,0,0,1,.56.15A.94.94,0,0,1,85.1,21C85,21.44,84.64,21.72,84,21.72Z"/><path class="cls-1" d="M9.23,84.57c.09,0,.24.07.4.1l7.57,1.75a3.62,3.62,0,0,1,.75.22.88.88,0,0,1,.48,1,.93.93,0,0,1-.94.7,3.85,3.85,0,0,1-.66-.13L9.25,86.51a2.51,2.51,0,0,1-.55-.17.89.89,0,0,1-.51-1.12A1,1,0,0,1,9.23,84.57Z"/><path class="cls-1" d="M180.45,53.83a4.61,4.61,0,0,1-.11.6c-.62,2.53-1.24,5-1.87,7.58a2.19,2.19,0,0,1-.17.55.91.91,0,0,1-1.14.49.94.94,0,0,1-.62-1,2.34,2.34,0,0,1,.09-.38l1.89-7.77a3.65,3.65,0,0,1,.18-.56.92.92,0,0,1,1.75.48Z"/><path class="cls-1" d="M180.45,187.19c0,.14-.06.33-.1.52l-1.89,7.64a2.09,2.09,0,0,1-.18.55.91.91,0,0,1-1.06.47,1,1,0,0,1-.68-1,3.61,3.61,0,0,1,.12-.57c.61-2.52,1.23-5,1.84-7.56a3.62,3.62,0,0,1,.17-.56.93.93,0,0,1,1.07-.62A1,1,0,0,1,180.45,187.19Z"/><path class="cls-1" d="M43.25,62.14c0-.2.07-.43.12-.65q.91-3.75,1.85-7.48a3.1,3.1,0,0,1,.19-.66.89.89,0,0,1,1-.52.92.92,0,0,1,.72,1,2.9,2.9,0,0,1-.12.57L45.22,61.9a4.47,4.47,0,0,1-.2.65.9.9,0,0,1-1.05.53A.94.94,0,0,1,43.25,62.14Z"/><path class="cls-1" d="M138.94,111.49a.91.91,0,0,1-1.08.87,2.15,2.15,0,0,1-.63-.26l-6.95-3.9a2.19,2.19,0,0,1-.41-.26.87.87,0,0,1-.26-1.2.92.92,0,0,1,1.18-.38,2.16,2.16,0,0,1,.34.17c2.35,1.32,4.7,2.64,7.05,3.94A1.26,1.26,0,0,1,138.94,111.49Z"/><path class="cls-1" d="M84,155l-.69-.16-7.2-1.65a4,4,0,0,1-.83-.25.91.91,0,0,1,.4-1.73,3.28,3.28,0,0,1,.86.14l7.38,1.71a2.75,2.75,0,0,1,.56.16.91.91,0,0,1,.61,1.07A1,1,0,0,1,84,155Z"/><path class="cls-1" d="M47.18,120.48c0,.12-.06.28-.1.44-.64,2.59-1.27,5.18-1.91,7.77,0,.12-.05.26-.09.38a.93.93,0,0,1-1.15.65.9.9,0,0,1-.66-1.05,2.87,2.87,0,0,1,.11-.57c.61-2.47,1.21-4.93,1.82-7.39a5,5,0,0,1,.18-.66.93.93,0,0,1,1.12-.56A1,1,0,0,1,47.18,120.48Z"/><path class="cls-1" d="M138.93,178.11a.93.93,0,0,1-1.13.9,2.43,2.43,0,0,1-.61-.29l-6.87-3.85a2.47,2.47,0,0,1-.56-.37.84.84,0,0,1-.17-1.07.87.87,0,0,1,1-.48,1.79,1.79,0,0,1,.46.16c2.43,1.36,4.86,2.73,7.29,4.08A1.09,1.09,0,0,1,138.93,178.11Z"/><path class="cls-1" d="M113.82,120.51c0,.12-.07.31-.12.5-.61,2.53-1.23,5-1.84,7.58a3.65,3.65,0,0,1-.18.56.91.91,0,0,1-1.77-.38,3.93,3.93,0,0,1,.12-.67c.61-2.49,1.23-5,1.84-7.48a3.5,3.5,0,0,1,.2-.65.9.9,0,0,1,1.07-.48A1,1,0,0,1,113.82,120.51Z"/><path class="cls-1" d="M180.45,120.56c0,.13-.06.32-.1.51-.62,2.53-1.25,5.05-1.87,7.57a2.53,2.53,0,0,1-.18.55.88.88,0,0,1-1,.53.94.94,0,0,1-.72-1,2.66,2.66,0,0,1,.11-.47l1.86-7.67a3.09,3.09,0,0,1,.14-.46.92.92,0,0,1,1.08-.62C180.21,119.58,180.46,119.94,180.45,120.56Z"/><path class="cls-1" d="M43.25,195.39c0-.16.06-.36.11-.54.63-2.55,1.25-5.1,1.89-7.65.21-.86.63-1.22,1.2-1.09s.82.65.62,1.5c-.63,2.58-1.27,5.16-1.9,7.74a3.47,3.47,0,0,1-.13.46.93.93,0,0,1-1.79-.42Z"/><path class="cls-1" d="M150.67,21.72l-.68-.14-7.32-1.68a3.54,3.54,0,0,1-.74-.23.88.88,0,0,1-.5-1,.9.9,0,0,1,.89-.75A2.58,2.58,0,0,1,143,18l7.6,1.75a3.31,3.31,0,0,1,.56.17.92.92,0,0,1,.56,1.11A1,1,0,0,1,150.67,21.72Z"/><path class="cls-1" d="M71.37,45.81a8.49,8.49,0,0,1-.82-.38l-6.89-3.86a2.91,2.91,0,0,1-.42-.25A.94.94,0,0,1,63,40.1a.93.93,0,0,1,1.18-.4,3.63,3.63,0,0,1,.51.28c2.24,1.25,4.49,2.5,6.72,3.76a3.23,3.23,0,0,1,.65.44.81.81,0,0,1,.13,1.07A3.09,3.09,0,0,1,71.37,45.81Z"/><path class="cls-1" d="M109.91,62c0-.12.06-.31.11-.5l1.86-7.58c.22-.88.61-1.23,1.2-1.09s.85.79.64,1.58c-.67,2.48-1.24,5-1.85,7.48a5.18,5.18,0,0,1-.17.56.9.9,0,0,1-1.07.63C110.16,63,109.9,62.62,109.91,62Z"/><path class="cls-1" d="M137.76,45.7a6.24,6.24,0,0,1-.61-.29l-6.78-3.8a3.1,3.1,0,0,1-.57-.37.86.86,0,0,1-.19-1.14.89.89,0,0,1,1.08-.42,3.13,3.13,0,0,1,.61.3L138,43.73a2.93,2.93,0,0,1,.65.43.84.84,0,0,1,.19,1.06A.94.94,0,0,1,137.76,45.7Z"/><path class="cls-1" d="M75.85,84.57l.39.09,7.68,1.78a2.8,2.8,0,0,1,.28.06c.69.19,1,.63.9,1.16s-.62.81-1.31.66c-1.64-.36-3.29-.74-4.93-1.12l-2.93-.69a2.58,2.58,0,0,1-.56-.16.9.9,0,0,1-.56-1.1A1,1,0,0,1,75.85,84.57Z"/><path class="cls-1" d="M17.39,155l-.5-.11-7.39-1.7a4,4,0,0,1-.75-.2.93.93,0,0,1,.44-1.79,5.28,5.28,0,0,1,.67.13l7.47,1.73a2.6,2.6,0,0,1,.56.17.89.89,0,0,1,.56,1A1,1,0,0,1,17.39,155Z"/><path class="cls-1" d="M142.42,151.22c.24.05.53.09.82.16l7.28,1.69a3.54,3.54,0,0,1,.74.23.88.88,0,0,1,.45,1.07.85.85,0,0,1-.86.65,3,3,0,0,1-.67-.11l-7.39-1.69A4.22,4.22,0,0,1,142,153a.92.92,0,0,1-.51-1A1,1,0,0,1,142.42,151.22Z"/><path class="cls-1" d="M64,173a5.18,5.18,0,0,1,.6.29l6.8,3.81a2.2,2.2,0,0,1,.26.15,1,1,0,0,1,.46,1.39,1,1,0,0,1-1.38.24c-1.2-.65-2.38-1.32-3.57-2s-2.39-1.33-3.57-2a1.65,1.65,0,0,1-.69-.64C62.61,173.54,63.17,172.86,64,173Z"/><path class="cls-1" d="M17.4,21.72c-.16,0-.39-.06-.61-.11l-7.5-1.73a2.9,2.9,0,0,1-.65-.21.89.89,0,0,1-.46-1.07A.82.82,0,0,1,9,18a3,3,0,0,1,.67.09l7.51,1.72a5.15,5.15,0,0,1,.56.16.92.92,0,0,1-.38,1.8Z"/><path class="cls-1" d="M124,200c-1.33,0-2.56,0-3.79,0a1.39,1.39,0,0,1-.69-.31,6.69,6.69,0,0,1-2.88-5.38,2.16,2.16,0,0,1,.08-.67.86.86,0,0,1,.85-.67.92.92,0,0,1,.92.72,3.88,3.88,0,0,1,0,.68,4.86,4.86,0,0,0,4.23,4.63C123.67,199.1,123.67,199.1,124,200Z"/><path class="cls-1" d="M57.38,200c-1.33,0-2.56,0-3.79,0a1.14,1.14,0,0,1-.62-.24,6.66,6.66,0,0,1-3-5.52,1.68,1.68,0,0,1,0-.39,1,1,0,0,1,.9-.89,1,1,0,0,1,1,.81,3.82,3.82,0,0,1,0,.68A4.8,4.8,0,0,0,56.11,199C56.68,199,57.21,199.12,57.38,200Z"/><path class="cls-1" d="M190.65,200c-1.31,0-2.51,0-3.71,0a1.28,1.28,0,0,1-.7-.26,6.56,6.56,0,0,1-2.93-5.63c0-.2,0-.45.1-.56a1.69,1.69,0,0,1,.83-.56.76.76,0,0,1,.86.63,4.79,4.79,0,0,1,.07.77,4.83,4.83,0,0,0,4.36,4.61C190.08,199.05,190.53,199.19,190.65,200Z"/><path class="cls-1" d="M40.12,199.94c-.27,0-.56,0-.84,0s-.57,0-.85,0c-.19-1.47-.76-2.14-1.73-2.09s-1.46.71-1.57,2.08c-.26,0-.54,0-.82.06h-.85a3.09,3.09,0,0,1,1.2-3.3,3.54,3.54,0,0,1,3.94-.2A3.27,3.27,0,0,1,40.12,199.94Z"/><path class="cls-1" d="M168.45,199.93h-1.84a3.4,3.4,0,0,1,1.46-3.32,3.3,3.3,0,0,1,3.76-.14,3.46,3.46,0,0,1,1.7,3.44h-1.82c-.09-.64-.08-1.41-.8-1.79a2.12,2.12,0,0,0-1-.24C169,197.94,168.53,198.59,168.45,199.93Z"/><path class="cls-1" d="M106.84,199.94h-1.6a8.55,8.55,0,0,0-.81-1.66,1.48,1.48,0,0,0-1-.41c-1,0-1.49.67-1.62,2.07H100a3.19,3.19,0,0,1,1.41-3.32,3.26,3.26,0,0,1,3.76-.15A3.34,3.34,0,0,1,106.84,199.94Z"/><path class="cls-1" d="M199.93,163.13v1.7c-1.2.41-1.68.94-1.64,1.79s.5,1.26,1.64,1.59v1.69c-1.41.4-3.48-1.17-3.53-3.19A3.39,3.39,0,0,1,199.93,163.13Z"/><path class="cls-1" d="M199.94,29.8v1.75c-.88.22-1.63.63-1.65,1.7,0,.81.44,1.28,1.64,1.71v1.67a3.31,3.31,0,0,1-3.52-3.14A3.44,3.44,0,0,1,199.94,29.8Z"/><path class="cls-1" d="M199.93,96.44v1.75c-.88.24-1.66.65-1.63,1.73s.71,1.47,1.65,1.64v1.73a3,3,0,0,1-2.92-1.41,3.45,3.45,0,0,1,2.9-5.44Z"/><path class="cls-1" d="M34.72,18.16a1.83,1.83,0,0,1-.39.58q-1.69,1.36-3.44,2.69a.91.91,0,0,1-1.37-.15A.88.88,0,0,1,29.71,20c1.16-.93,2.33-1.86,3.54-2.73A.94.94,0,0,1,34.72,18.16Z"/><path class="cls-1" d="M54.63,53.6a.94.94,0,0,1-1.39.89,1.39,1.39,0,0,1-.4-.4c-.77-1.16-1.55-2.32-2.29-3.5a1,1,0,0,1,.24-1.43c.46-.28.93-.16,1.32.41.78,1.15,1.53,2.32,2.29,3.49A2.55,2.55,0,0,1,54.63,53.6Z"/><path class="cls-1" d="M28.63,117.54l-1-.18c-1.11-.2-2.23-.38-3.34-.6a.94.94,0,0,1-.84-1.1.93.93,0,0,1,1.18-.72c1.41.22,2.81.46,4.2.73a.92.92,0,0,1,.83,1.11A1,1,0,0,1,28.63,117.54Z"/><path class="cls-1" d="M121.26,53.56a.93.93,0,0,1-1.4.91,1.76,1.76,0,0,1-.45-.49c-.74-1.1-1.46-2.21-2.18-3.33-.12-.18-.28-.44-.24-.61a1.9,1.9,0,0,1,.48-.88.73.73,0,0,1,1,.07,2.38,2.38,0,0,1,.43.52c.7,1,1.39,2.11,2.07,3.17A3.93,3.93,0,0,1,121.26,53.56Z"/><path class="cls-1" d="M110.9,19.58c-.89,0-1.3-.67-1-1.31a3.08,3.08,0,0,1,.32-.48l2.29-2.89a2.67,2.67,0,0,1,.47-.48.85.85,0,0,1,1.08,0,.86.86,0,0,1,.31,1,1.46,1.46,0,0,1-.25.41c-.83,1.07-1.66,2.14-2.53,3.19A3,3,0,0,1,110.9,19.58Z"/><path class="cls-1" d="M91.32,114.92c1.37.25,2.8.48,4.23.76a.91.91,0,0,1,.79,1.13.92.92,0,0,1-1.11.71c-1.43-.23-2.86-.49-4.29-.77a.89.89,0,0,1-.79-1.12C90.26,115.13,90.64,114.88,91.32,114.92Z"/><path class="cls-1" d="M47.81,148.49a2.45,2.45,0,0,1-.29.61c-.87,1.13-1.75,2.26-2.66,3.37a.94.94,0,1,1-1.44-1.18c.85-1.11,1.72-2.21,2.61-3.29a1,1,0,0,1,1.57-.07A2.83,2.83,0,0,1,47.81,148.49Z"/><path class="cls-1" d="M100.6,102.87c-.83,0-1.26-.64-1-1.25A2.49,2.49,0,0,1,100,101l2.18-2.76a3.16,3.16,0,0,1,.38-.44.9.9,0,0,1,1.24,0,.91.91,0,0,1,.2,1.15,6.61,6.61,0,0,1-.64.86c-.67.84-1.32,1.7-2,2.52A3.81,3.81,0,0,1,100.6,102.87Z"/><path class="cls-1" d="M110.89,86.25c-.79,0-1.26-.63-1-1.21a2,2,0,0,1,.35-.58l2.35-3a2.65,2.65,0,0,1,.4-.42.86.86,0,0,1,1.08,0,.9.9,0,0,1,.31,1.12,2.23,2.23,0,0,1-.27.41c-.82,1-1.63,2.09-2.48,3.11A3,3,0,0,1,110.89,86.25Z"/><path class="cls-1" d="M34,36.2c-.86,0-1.33-.62-1.09-1.25a1.77,1.77,0,0,1,.26-.41c.84-1.07,1.68-2.13,2.53-3.19a1.36,1.36,0,0,1,.35-.33.82.82,0,0,1,1.07.06.85.85,0,0,1,.28,1,1.93,1.93,0,0,1-.31.49c-.8,1-1.59,2-2.42,3A3.54,3.54,0,0,1,34,36.2Z"/><path class="cls-1" d="M161.93,50.89c-1.46-.26-3-.5-4.44-.81a.89.89,0,0,1-.7-1.11.9.9,0,0,1,1-.71c1.5.24,3,.5,4.48.8a.9.9,0,0,1,.72,1A1,1,0,0,1,161.93,50.89Z"/><path class="cls-1" d="M168.12,151.26a3.73,3.73,0,0,1-.55.83c-1.1.89-2.23,1.77-3.37,2.62a.9.9,0,0,1-1.37-.12.92.92,0,0,1,.24-1.36c1.11-.89,2.24-1.75,3.36-2.62a.85.85,0,0,1,1.08-.12A4.31,4.31,0,0,1,168.12,151.26Z"/><path class="cls-1" d="M34,169.49c-.86,0-1.34-.61-1.08-1.24a2.32,2.32,0,0,1,.37-.57l2.28-2.89a2.28,2.28,0,0,1,.4-.42.93.93,0,0,1,1.16,0,.9.9,0,0,1,.23,1.14,2.55,2.55,0,0,1-.27.4c-.8,1-1.59,2-2.42,3A3.54,3.54,0,0,1,34,169.49Z"/><path class="cls-1" d="M170.85,165a4,4,0,0,1-.35.72c-.88,1.13-1.76,2.25-2.67,3.35a1.08,1.08,0,0,1-.74.37,1.1,1.1,0,0,1-.79-.43,1.31,1.31,0,0,1,0-1,7,7,0,0,1,.87-1.17c.63-.79,1.25-1.58,1.89-2.36a.84.84,0,0,1,1.13-.25C170.5,164.43,170.66,164.79,170.85,165Z"/><path class="cls-1" d="M34.84,84.66a4.25,4.25,0,0,1-.59.81c-1.08.87-2.18,1.72-3.3,2.56a1,1,0,0,1-1.45-.12.93.93,0,0,1,.3-1.35c1.09-.87,2.2-1.71,3.29-2.56a.93.93,0,0,1,1.17-.13A3.17,3.17,0,0,1,34.84,84.66Z"/><path class="cls-1" d="M47.83,81.74a1.78,1.78,0,0,1-.2.55c-1,1.22-1.9,2.45-2.88,3.65a.81.81,0,0,1-1,.25.85.85,0,0,1-.53-1.25c1-1.33,2-2.61,3.08-3.87a.68.68,0,0,1,1,0A3.34,3.34,0,0,1,47.83,81.74Z"/><path class="cls-1" d="M24.57,48.25c1.46.27,3,.51,4.45.82a.88.88,0,0,1,.66,1.13.9.9,0,0,1-1,.68c-1.47-.23-2.94-.49-4.4-.77A.93.93,0,0,1,23.48,49,1,1,0,0,1,24.57,48.25Z"/><path class="cls-1" d="M96.8,155c-.21-.17-.58-.31-.67-.56a1.7,1.7,0,0,1,.07-1c0-.16.26-.28.41-.4l3-2.31a1.91,1.91,0,0,1,.4-.28.9.9,0,0,1,1.14.21.87.87,0,0,1,0,1.23c-1.23,1-2.49,2-3.75,2.92A2.19,2.19,0,0,1,96.8,155Z"/><path class="cls-1" d="M104.21,31.78a7.08,7.08,0,0,1-.46.81c-.8,1-1.61,2-2.42,3.07A2.24,2.24,0,0,1,101,36a.92.92,0,0,1-1.17,0,.88.88,0,0,1-.24-1.06,1.93,1.93,0,0,1,.31-.49l2.36-3c.14-.17.3-.41.49-.45a1.35,1.35,0,0,1,.91,0C103.89,31.15,104,31.5,104.21,31.78Z"/><path class="cls-1" d="M110.91,152.89c-.84,0-1.28-.65-1-1.23a2.12,2.12,0,0,1,.36-.57c.75-1,1.52-1.93,2.28-2.89a2.49,2.49,0,0,1,.47-.5.93.93,0,0,1,1.16.1.88.88,0,0,1,.19,1.07,2.55,2.55,0,0,1-.27.4c-.8,1-1.59,2-2.42,3A3.6,3.6,0,0,1,110.91,152.89Z"/><path class="cls-1" d="M33.91,102.88c-.79,0-1.23-.68-1-1.26a1.66,1.66,0,0,1,.3-.49l2.41-3c.06-.07.12-.15.19-.22a.91.91,0,0,1,1.3-.15.9.9,0,0,1,.16,1.3c-.31.45-.67.87-1,1.3-.54.69-1.07,1.39-1.64,2A3.41,3.41,0,0,1,33.91,102.88Z"/><path class="cls-1" d="M169.69,97.5a1,1,0,0,1,1,1.21,1.68,1.68,0,0,1-.29.5L168,102.33c-.07.07-.12.15-.2.22a.92.92,0,0,1-1.44-1.14c.91-1.22,1.86-2.4,2.83-3.58A1.71,1.71,0,0,1,169.69,97.5Z"/><path class="cls-1" d="M121.26,120.24a.94.94,0,0,1-1.37.91.79.79,0,0,1-.22-.18c-.88-1.32-1.76-2.64-2.61-4a.84.84,0,0,1,.27-1.12.85.85,0,0,1,1.23.11c.9,1.3,1.75,2.64,2.62,4A1,1,0,0,1,121.26,120.24Z"/><path class="cls-1" d="M51.44,115.68a2.36,2.36,0,0,1,.63.5c.81,1.18,1.6,2.37,2.36,3.58a.92.92,0,0,1-.25,1.36.89.89,0,0,1-1.28-.31c-.83-1.2-1.64-2.42-2.4-3.67A1,1,0,0,1,51.44,115.68Z"/><path class="cls-1" d="M181.15,81.76a4.87,4.87,0,0,1-.35.72c-.88,1.13-1.76,2.27-2.68,3.36a1.24,1.24,0,0,1-.93.36.86.86,0,0,1-.61-1.34c.94-1.29,2-2.52,3-3.74a.7.7,0,0,1,1-.12A4.48,4.48,0,0,1,181.15,81.76Z"/><path class="cls-1" d="M157.85,114.91l3.37.59a9.26,9.26,0,0,1,1.05.2.94.94,0,0,1,.73,1.09.93.93,0,0,1-1.1.73c-1.46-.23-2.93-.49-4.39-.78a.89.89,0,0,1-.72-1.09A1,1,0,0,1,157.85,114.91Z"/><path class="cls-1" d="M121.31,187.11c-.16.2-.3.57-.54.65a1.73,1.73,0,0,1-1-.07c-.16-.05-.27-.28-.37-.44-.72-1.08-1.44-2.16-2.14-3.26a1.73,1.73,0,0,1-.27-.81.78.78,0,0,1,.6-.79.86.86,0,0,1,1,.32c.85,1.26,1.68,2.54,2.51,3.83A2.4,2.4,0,0,1,121.31,187.11Z"/><path class="cls-1" d="M184.69,182.34c.13.09.47.2.63.43.83,1.2,1.64,2.43,2.41,3.67a.91.91,0,0,1-.21,1.3.94.94,0,0,1-1.35-.31c-.83-1.21-1.64-2.43-2.4-3.68C183.37,183.09,183.79,182.37,184.69,182.34Z"/><path class="cls-1" d="M30.39,155a1,1,0,0,1-.93-1.38.8.8,0,0,1,.18-.23c1.22-.95,2.44-1.92,3.69-2.84a.83.83,0,0,1,1.2.24.87.87,0,0,1-.05,1.15,1.79,1.79,0,0,1-.28.27c-1.08.83-2.15,1.67-3.23,2.49A2.94,2.94,0,0,1,30.39,155Z"/><path class="cls-1" d="M95.35,50.9l-3.44-.6c-.32-.06-.64-.09-1-.18a.95.95,0,1,1,.37-1.85c1.4.24,2.8.5,4.2.75l.19,0a.93.93,0,0,1,.62,1.07A1,1,0,0,1,95.35,50.9Z"/><path class="cls-1" d="M47.85,15.11a3.19,3.19,0,0,1-.29.65c-.9,1.15-1.79,2.32-2.73,3.43a1.28,1.28,0,0,1-.94.35.86.86,0,0,1-.55-1.42c.89-1.2,1.83-2.36,2.77-3.53a.84.84,0,0,1,1.14-.23A3.3,3.3,0,0,1,47.85,15.11Z"/><path class="cls-1" d="M188,53.73a4.27,4.27,0,0,1-.62.77.74.74,0,0,1-1-.1,2.34,2.34,0,0,1-.42-.52c-.68-1-1.36-2.06-2-3.09a2.42,2.42,0,0,1-.27-.5.9.9,0,0,1,.35-1.11.88.88,0,0,1,1.15.13,2.66,2.66,0,0,1,.35.46c.68,1,1.35,2,2,3.09C187.71,53.1,187.82,53.36,188,53.73Z"/><path class="cls-1" d="M188,120.42a3,3,0,0,1-.49.69.79.79,0,0,1-1,0,1.15,1.15,0,0,1-.27-.27c-.81-1.22-1.63-2.44-2.4-3.68a.9.9,0,0,1,.22-1.29.85.85,0,0,1,1.22.17c.89,1.28,1.73,2.6,2.58,3.91A2,2,0,0,1,188,120.42Z"/><path class="cls-1" d="M170.77,31.92a4.32,4.32,0,0,1-.35.64c-.81,1-1.64,2.08-2.46,3.12a1.82,1.82,0,0,1-.34.34.9.9,0,0,1-1.16,0,.89.89,0,0,1-.24-1.06,1.53,1.53,0,0,1,.26-.4c.82-1.05,1.63-2.1,2.48-3.12a1.59,1.59,0,0,1,.77-.51C170.25,30.76,170.76,31.24,170.77,31.92Z"/><path class="cls-1" d="M163.65,21.67a.94.94,0,0,1-.88-1.41,2.14,2.14,0,0,1,.48-.47l3-2.32a2.87,2.87,0,0,1,.49-.31.88.88,0,0,1,1.06.24.92.92,0,0,1,0,1.16,1,1,0,0,1-.21.21c-1.14.89-2.29,1.79-3.45,2.67A2.14,2.14,0,0,1,163.65,21.67Z"/><path class="cls-1" d="M161.66,184.14c-1.25-.23-2.66-.46-4.06-.75a.92.92,0,1,1,.31-1.81c1.41.22,2.82.47,4.22.75a.94.94,0,0,1,.88,1.07C162.92,183.93,162.5,184.19,161.66,184.14Z"/><path class="cls-1" d="M101.47,18a3.45,3.45,0,0,1-.52.76q-1.67,1.35-3.38,2.64a.93.93,0,0,1-1.39-.11,1,1,0,0,1,.24-1.37c1.12-.89,2.26-1.76,3.4-2.63a.84.84,0,0,1,1.08-.08A3.93,3.93,0,0,1,101.47,18Z"/><path class="cls-1" d="M24.8,181.58c1.29.24,2.73.48,4.16.78a.87.87,0,0,1,.73,1.08.85.85,0,0,1-1,.71c-1-.12-2-.31-3-.48-.45-.07-.9-.15-1.34-.26-.65-.16-1-.57-.89-1.07S24,181.54,24.8,181.58Z"/><path class="cls-1" d="M54.72,187.06c-.21.26-.36.63-.61.71a1.66,1.66,0,0,1-1-.09c-.18-.07-.3-.33-.42-.52l-2-3a3.66,3.66,0,0,1-.26-.42.93.93,0,0,1,1.55-1,8.45,8.45,0,0,1,.5.72c.61.93,1.22,1.85,1.81,2.78A7.35,7.35,0,0,1,54.72,187.06Z"/><path class="cls-1" d="M100.61,169.49c-.77,0-1.21-.5-1.08-1.09a1.32,1.32,0,0,1,.25-.52c.84-1.07,1.68-2.15,2.54-3.21a1,1,0,0,1,1.44-.31c.43.34.47.89,0,1.46-.83,1.09-1.67,2.16-2.54,3.21A2.43,2.43,0,0,1,100.61,169.49Z"/><path class="cls-1" d="M177.58,19.57c-.85,0-1.32-.6-1.05-1.25a2.72,2.72,0,0,1,.43-.65l2.17-2.75a2.73,2.73,0,0,1,.47-.49.91.91,0,0,1,1.42,1,1.45,1.45,0,0,1-.26.51c-.84,1.08-1.68,2.15-2.55,3.2A2.56,2.56,0,0,1,177.58,19.57Z"/><path class="cls-1" d="M91.41,181.58c1.27.23,2.71.47,4.14.76a.89.89,0,0,1,.8,1,.87.87,0,0,1-1,.77c-.68-.07-1.35-.21-2-.33s-1.54-.25-2.3-.42-.94-.55-.83-1.1S90.62,181.55,91.41,181.58Z"/><path class="cls-1" d="M168.1,84.64a2.82,2.82,0,0,1-.43.71c-1.17.94-2.35,1.85-3.54,2.76a.82.82,0,0,1-1.08,0,1.5,1.5,0,0,1-.39-.83.83.83,0,0,1,.27-.59c1.19-.95,2.39-1.91,3.63-2.8a1.21,1.21,0,0,1,1,0C167.79,84,167.91,84.37,168.1,84.64Z"/><path class="cls-1" d="M177.5,152.89a.94.94,0,0,1-1-1.26,2,2,0,0,1,.36-.56c.74-.95,1.49-1.89,2.24-2.83a2.44,2.44,0,0,1,.46-.5.89.89,0,0,1,1.09,0,.87.87,0,0,1,.33,1,.9.9,0,0,1-.18.35c-.9,1.14-1.8,2.3-2.73,3.43A1.76,1.76,0,0,1,177.5,152.89Z"/><path class="cls-1" d="M100.49,83.62c.28.22.63.37.74.61a1.54,1.54,0,0,1,0,.92c0,.16-.25.29-.4.41L97.71,88a2.48,2.48,0,0,1-.4.26.92.92,0,0,1-1.08-1.44,3.23,3.23,0,0,1,.44-.39c1-.74,1.89-1.49,2.85-2.21A8.38,8.38,0,0,1,100.49,83.62Z"/><path class="cls-1" d="M123.75,110.13a1.73,1.73,0,0,1-1.79,1.66,1.7,1.7,0,1,1,1.79-1.66Z"/><path class="cls-1" d="M164.69,190.58a1.7,1.7,0,1,1,1.65,1.71A1.73,1.73,0,0,1,164.69,190.58Z"/><path class="cls-1" d="M99.73,192.29a1.71,1.71,0,1,1,1.72-1.65A1.74,1.74,0,0,1,99.73,192.29Z"/><path class="cls-1" d="M142.51,95.66a1.73,1.73,0,0,1-1.69-1.76,1.71,1.71,0,0,1,3.42.13A1.74,1.74,0,0,1,142.51,95.66Z"/><path class="cls-1" d="M180.42,87.71a1.71,1.71,0,1,1-1.66,1.79A1.73,1.73,0,0,1,180.42,87.71Z"/><path class="cls-1" d="M115.52,89.4a1.71,1.71,0,1,1-1.78-1.69A1.75,1.75,0,0,1,115.52,89.4Z"/><path class="cls-1" d="M123.75,176.71A1.71,1.71,0,1,1,122,175,1.74,1.74,0,0,1,123.75,176.71Z"/><path class="cls-1" d="M91.58,111.66a1.71,1.71,0,1,1,1.65-1.8A1.73,1.73,0,0,1,91.58,111.66Z"/><path class="cls-1" d="M93.23,43.33A1.7,1.7,0,0,1,91.56,45a1.7,1.7,0,1,1,1.67-1.68Z"/><path class="cls-1" d="M144.24,27.29a1.71,1.71,0,1,1-1.78-1.68A1.75,1.75,0,0,1,144.24,27.29Z"/><path class="cls-1" d="M158.23,108.25a1.71,1.71,0,1,1-1.75,1.61A1.74,1.74,0,0,1,158.23,108.25Z"/><path class="cls-1" d="M26.57,176.62a1.69,1.69,0,1,1-1.62-1.7A1.66,1.66,0,0,1,26.57,176.62Z"/><path class="cls-1" d="M158.17,45a1.7,1.7,0,1,1,0-3.39,1.7,1.7,0,1,1,0,3.39Z"/><path class="cls-1" d="M34.78,57.27a1.69,1.69,0,1,1-1.65-1.67A1.65,1.65,0,0,1,34.78,57.27Z"/><path class="cls-1" d="M190.38,43.49a1.69,1.69,0,1,1-1.59-1.73A1.66,1.66,0,0,1,190.38,43.49Z"/><path class="cls-1" d="M99.71,55.6A1.69,1.69,0,1,1,98,57.27,1.7,1.7,0,0,1,99.71,55.6Z"/><path class="cls-1" d="M10.93,27.29a1.69,1.69,0,1,1-1.67-1.68A1.71,1.71,0,0,1,10.93,27.29Z"/><path class="cls-1" d="M68.5,133.34a1.71,1.71,0,0,1-3.42-.08,1.71,1.71,0,0,1,3.42.08Z"/><path class="cls-1" d="M128,125.12a3.47,3.47,0,1,1-3.52,3.43A3.45,3.45,0,0,1,128,125.12Zm0,5.07a1.61,1.61,0,0,0,0-3.21,1.61,1.61,0,1,0,0,3.21Z"/><path class="cls-1" d="M144.23,132.19a5.57,5.57,0,0,1-5.42-4.09,3.9,3.9,0,0,1-.13-1,.81.81,0,0,1,.69-.82.89.89,0,0,1,1,.51c.1.23.13.49.21.74a3.68,3.68,0,0,0,7.23-.95c0-.2,0-.39,0-.59a.87.87,0,0,1,.84-.9.83.83,0,0,1,1,.76,7.43,7.43,0,0,1-.1,2.11A5.52,5.52,0,0,1,144.23,132.19Z"/><path class="cls-1" d="M116.66,127.5a1.88,1.88,0,0,1,0-.51.91.91,0,0,1,.94-.68.86.86,0,0,1,.84.69,2.93,2.93,0,0,1,.07.67,4.81,4.81,0,0,0,4,4.62c.26.05.52.05.77.12a.91.91,0,0,1,.72.91.89.89,0,0,1-.86.89,4.74,4.74,0,0,1-1.06-.08A6.82,6.82,0,0,1,116.66,127.5Z"/><path class="cls-1" d="M135.16,133.34a1.71,1.71,0,0,1-3.42-.08,1.71,1.71,0,0,1,3.42.08Z"/><path class="cls-1" d="M101.45,123.88A1.71,1.71,0,0,1,98,124a1.71,1.71,0,0,1,3.41-.1Z"/><path class="cls-1" d="M113.79,21.08a1.72,1.72,0,0,1,1.73,1.72,1.71,1.71,0,0,1-3.42,0A1.72,1.72,0,0,1,113.79,21.08Z"/><path class="cls-1" d="M48.85,22.8a1.69,1.69,0,1,1-3.37-.05,1.69,1.69,0,1,1,3.37.05Z"/><path class="cls-1" d="M77.57,27.36a1.69,1.69,0,1,1-1.69-1.75A1.7,1.7,0,0,1,77.57,27.36Z"/><path class="cls-1" d="M115.52,156a1.71,1.71,0,0,1-3.42.1,1.71,1.71,0,0,1,3.42-.1Z"/><path class="cls-1" d="M188.73,111.79a1.7,1.7,0,1,1,1.65-1.78A1.69,1.69,0,0,1,188.73,111.79Z"/><path class="cls-1" d="M77.57,160.58a1.69,1.69,0,0,1-3.38.06,1.69,1.69,0,1,1,3.38-.06Z"/><path class="cls-1" d="M68.5,66.67A1.71,1.71,0,1,1,66.85,65,1.7,1.7,0,0,1,68.5,66.67Z"/><path class="cls-1" d="M190.38,176.74a1.69,1.69,0,1,1-3.37,0,1.69,1.69,0,1,1,3.37,0Z"/><path class="cls-1" d="M26.57,109.92a1.69,1.69,0,1,1-1.67-1.67A1.7,1.7,0,0,1,26.57,109.92Z"/><path class="cls-1" d="M159.89,176.63a1.71,1.71,0,0,1-3.41,0,1.71,1.71,0,0,1,3.41,0Z"/><path class="cls-1" d="M9.27,95.66A1.69,1.69,0,0,1,7.55,94,1.67,1.67,0,0,1,9.2,92.27a1.7,1.7,0,1,1,.07,3.39Z"/><path class="cls-1" d="M133.41,68.35a1.69,1.69,0,1,1,1.72-1.71A1.68,1.68,0,0,1,133.41,68.35Z"/><path class="cls-1" d="M168.1,57.29a1.71,1.71,0,0,1-3.41,0,1.71,1.71,0,0,1,3.41,0Z"/><path class="cls-1" d="M168.1,123.9a1.71,1.71,0,1,1-1.78-1.66A1.71,1.71,0,0,1,168.1,123.9Z"/><path class="cls-1" d="M123.75,43.41a1.69,1.69,0,0,1-1.62,1.72,1.69,1.69,0,1,1-.17-3.37A1.7,1.7,0,0,1,123.75,43.41Z"/><path class="cls-1" d="M48.85,156.05a1.69,1.69,0,1,1-3.37,0,1.69,1.69,0,0,1,3.37,0Z"/><path class="cls-1" d="M57.09,176.7A1.7,1.7,0,1,1,55.4,175,1.71,1.71,0,0,1,57.09,176.7Z"/><path class="cls-1" d="M24.89,45a1.68,1.68,0,0,1-1.68-1.65A1.68,1.68,0,1,1,24.89,45Z"/><path class="cls-1" d="M55.41,111.79a1.7,1.7,0,1,1,1.68-1.66A1.7,1.7,0,0,1,55.41,111.79Z"/><path class="cls-1" d="M180.46,157.77a1.7,1.7,0,0,1-1.7-1.65,1.7,1.7,0,0,1,3.4-.1A1.72,1.72,0,0,1,180.46,157.77Z"/><path class="cls-1" d="M142.49,162.29a1.69,1.69,0,1,1,1.75-1.69A1.7,1.7,0,0,1,142.49,162.29Z"/><path class="cls-1" d="M93.23,176.61a1.68,1.68,0,0,1-1.65,1.68,1.69,1.69,0,1,1,0-3.37A1.66,1.66,0,0,1,93.23,176.61Z"/><path class="cls-1" d="M48.85,89.46a1.69,1.69,0,1,1-1.7-1.75A1.71,1.71,0,0,1,48.85,89.46Z"/><path class="cls-1" d="M34.78,190.61a1.69,1.69,0,0,1-1.66,1.68,1.71,1.71,0,1,1,1.66-1.68Z"/><path class="cls-1" d="M10.93,160.59a1.69,1.69,0,1,1-1.76-1.67A1.66,1.66,0,0,1,10.93,160.59Z"/><path class="cls-1" d="M77.57,94a1.69,1.69,0,1,1-1.71-1.72A1.69,1.69,0,0,1,77.57,94Z"/><path class="cls-1" d="M182.16,22.75a1.7,1.7,0,1,1-1.78-1.67A1.72,1.72,0,0,1,182.16,22.75Z"/><path class="cls-1" d="M34.78,123.9a1.69,1.69,0,1,1-3.37.06,1.69,1.69,0,1,1,3.37-.06Z"/><path class="cls-1" d="M55.42,45.13a1.69,1.69,0,1,1,1.67-1.66A1.66,1.66,0,0,1,55.42,45.13Z"/><path class="cls-1" d="M200,109.92c-1.25-.71-2.38-1.32-3.47-2a.86.86,0,0,1-.25-1.2.87.87,0,0,1,1.17-.36c.78.38,1.54.81,2.28,1.26a.66.66,0,0,1,.26.47C200,108.64,200,109.19,200,109.92Z"/><path class="cls-1" d="M200,43.27c-1.27-.72-2.4-1.34-3.5-2a.86.86,0,0,1-.24-1.14.87.87,0,0,1,1.16-.42c.79.38,1.55.83,2.3,1.28a.67.67,0,0,1,.27.47C200,42,200,42.54,200,43.27Z"/><path class="cls-1" d="M200,174.39v2.13l-1.06-.57c-.73-.4-1.47-.8-2.19-1.23a1,1,0,0,1-.46-1.31.93.93,0,0,1,1.35-.33C198.39,173.49,199.16,174,200,174.39Z"/><path class="cls-1" d="M68.47,199.93h-3.3c.11-1.05.66-1.64,1.54-1.69S68.22,198.76,68.47,199.93Z"/><path class="cls-1" d="M131.78,200c.2-1.15.81-1.73,1.68-1.72s1.46.59,1.63,1.72C134,200,132.92,200,131.78,200Z"/><path class="cls-1" d="M199.89,131.72v3.09a1.41,1.41,0,0,1-1.5-1.38A1.58,1.58,0,0,1,199.89,131.72Z"/><path class="cls-1" d="M199.93,65.06v3.17a1.5,1.5,0,0,1-1.54-1.49A1.56,1.56,0,0,1,199.93,65.06Z"/><path class="cls-1" d="M199.93,198.35a5.48,5.48,0,0,1,0,.57c0,.31,0,.63,0,1h-1.5C198.51,198.89,198.85,198.51,199.93,198.35Z"/><path class="cls-1" d="M5.94,195.22a.42.42,0,0,0,.15-.11c.1.22.39.45-.15.75Z"/></svg>